<svg xmlns="http://www.w3.org/2000/svg" xmlns:xlink="http://www.w3.org/1999/xlink" viewBox="0 0 493.51 493.51"><defs><style>.cls-1{fill:none;}.cls-2{clip-path:url(#clip-path);}.cls-3{fill:#3c9cb3;}.cls-4{fill:#c867a9;}.cls-5{clip-path:url(#clip-path-2);}.cls-6{fill:#44c7d2;}</style><clipPath id="clip-path"><rect class="cls-1" x="350.55" y="61.69" width="58.24" height="59.83"/></clipPath><clipPath id="clip-path-2"><rect class="cls-1" x="25.42" y="300.19" width="152.22" height="156.39"/></clipPath></defs><g id="Layer_2" data-name="Layer 2"><g id="Layer_1-2" data-name="Layer 1"><g id="Group_831" data-name="Group 831"><g class="cls-2"><g id="Group_45" data-name="Group 45"><path id="Path_33" data-name="Path 33" class="cls-3" d="M407.09,110.75l-.3-.06a2,2,0,0,1-.47-.35c-.26-.34-.26-.86-.65-1.23a2.21,2.21,0,0,0-1-.56,1.17,1.17,0,0,0,.15-.27c.48-1.29-1.43-3.11-3.38-4.92-1-.87-1.94-1.7-3-2.47a4,4,0,0,0-.9-2,4.12,4.12,0,0,0-1.28-1c.05-.17.13-.41.22-.7.57-1.85.43-2.22.35-2.38a1.64,1.64,0,0,0-.7-.68,3,3,0,0,0-1.5-.47l4.24-5.33a58.66,58.66,0,0,0,5.05-6.18,5.92,5.92,0,0,0,2.72-2.32,5.57,5.57,0,0,0,.83-2.77,2.11,2.11,0,0,0,.25-2,2.07,2.07,0,0,0-2.73-1l-.18.09a8.81,8.81,0,0,0-1,.73,1.26,1.26,0,0,0-.72,0,7.66,7.66,0,0,0-2.42,1.22l-.78.15a44.66,44.66,0,0,0-4.81,1.24,1.23,1.23,0,0,0-.7-.68,1.76,1.76,0,0,0-1.4.34,5.41,5.41,0,0,0-1.62,1.31l-.67.15a1.08,1.08,0,0,0-.56.07l-.35.14q-1.89.44-3.78.9a1.57,1.57,0,0,0-1.67-1.48l-.18,0c-.16-.25-.32-.5-.49-.75a1.61,1.61,0,0,0-.91-1.4c-1.09-1.65-2.18-3.3-3.24-5a1.6,1.6,0,0,0-1.15-1.85,1.66,1.66,0,0,1-.48-.8,1.55,1.55,0,0,1,0-.88,2,2,0,0,0,.28-.56,2.45,2.45,0,0,0-.46-2,1.53,1.53,0,0,0-.84-1,1.78,1.78,0,0,0-.05-1,2,2,0,0,0-2.05-1.38A1.82,1.82,0,0,0,373,63.52a1.62,1.62,0,0,0,0,.22,1.28,1.28,0,0,0,.07.28c-1.32,1.78-1.5,3.57-.73,4.3a1.65,1.65,0,0,0,1.18.4L373.24,71a1.33,1.33,0,0,0-.79.23l-.14.1a2.21,2.21,0,0,0-.4.28l-.05,0a3.39,3.39,0,0,0-.31.34l0,0a1.5,1.5,0,0,0,0,1.58,2,2,0,0,0,.23.28,1.35,1.35,0,0,0,.39.47c-.1.17-.18.35-.26.52a6.87,6.87,0,0,0,0,4.87c-.22,1.13-.47,2.25-.75,3.37a.92.92,0,0,0-.39.44.83.83,0,0,0,0,.15,8.29,8.29,0,0,0-5.59,1.43l-2.72.61-7.95,1.76c-1.11.26-2.22.54-3.32.83a.83.83,0,0,0-.59,1,.85.85,0,0,0,.39.5l1.4.78a1.78,1.78,0,0,0-.07.76,2.91,2.91,0,0,0,.33,1,2.87,2.87,0,0,0,1,1,2.32,2.32,0,0,0,.48,1.22,2.84,2.84,0,0,0,3.37.66,2.45,2.45,0,0,0,.71-.57.4.4,0,0,0-.08.28c.08.84,3.18,1.19,4.32,1.29l.72.4a6.9,6.9,0,0,0,3.62,2l.56.3c-.17.29-.39.66-.62,1.12a14.81,14.81,0,0,0-.7,1.7,4,4,0,0,0-.35,1.36,2.27,2.27,0,0,0,.57,1.28c0,.08-.08.17-.13.25a.29.29,0,0,0,.51.28,4.23,4.23,0,0,1,.24-.4,2.1,2.1,0,0,0,.56,0c-.23,1.62-.45,3.24-.65,4.87-.18.25-.43.58-1,1.24-.71.86-1.6,1.71-1.69,2.87a1.4,1.4,0,0,0,.42,1.18,7.55,7.55,0,0,0-1.14,3.22,3.44,3.44,0,0,0,.31,2.36c.54.86,1.67,1.51,2.38,1.23a.92.92,0,0,0,.29-.23.81.81,0,0,0,.91-.17c2.8-3,5.27-6.22,7.88-9.33,1.4-1.67,2.84-3.33,4.34-4.92a1.8,1.8,0,0,0,1.69-.41c.92-.8,1.85-1.6,2.8-2.37a9.15,9.15,0,0,1,1.63.37.69.69,0,0,0,0,.4s0,0,0,.08c.11.48-.41.74-.41,1,0,.45,1.21,1.07,2.42.92a3.63,3.63,0,0,0,2-1l.2.08a2.16,2.16,0,0,0,1.09,1.3,2.33,2.33,0,0,0,2,0l.61.26a.5.5,0,0,0,0,.24c.05.57,1,1.06,1.82,1a1.84,1.84,0,0,0,.61-.16,15.69,15.69,0,0,0,4.81,3.1,6.86,6.86,0,0,1,3.56,2.22,3.48,3.48,0,0,0,.6.72,2.36,2.36,0,0,0,3.34-.12,2.6,2.6,0,0,0,.26-.32,2.24,2.24,0,0,0-.83-3,2.55,2.55,0,0,0-.54-.22m-8.84-4.07c.19-.17.21-.22.4-.4a5.09,5.09,0,0,1,1.13-.76l0,0a4.92,4.92,0,0,0-1.13,1.32l-.43-.2M383.38,95.15c-1,.78-1.91,1.57-2.83,2.39v0c.81-.85,1.63-1.69,2.45-2.53s1.73-1.46,2.62-2.17c2.1-1.64,4.28-3.18,6.5-4.64.7-.47,1.42-.92,2.14-1.36a.1.1,0,0,1,.05,0c-.76.69-1.53,1.39-2.31,2.08a63.2,63.2,0,0,0-8.62,6.21m3.93.92-.79.67c.12-.17.23-.36.34-.54l.45-.13m-16.86,9.34a6.16,6.16,0,0,1,1-1.66,5.89,5.89,0,0,0,.67-.65c.42-.49.6-.89,1-1a1,1,0,0,1,.34,0,1.74,1.74,0,0,1,.33-.65,2.2,2.2,0,0,1,1-.66,18,18,0,0,0,2.69-1.3l-3.7,2.94c-1.3,1.06-2.42,2.07-3.37,3m1.74,3.46-.73.57-1.5,1.15a15.55,15.55,0,0,0,.85-1.32,1.29,1.29,0,0,0,.84-.54,1.83,1.83,0,0,1,.32.07ZM359,91c-.41.2-.75.34-1,.43a12.91,12.91,0,0,1,2-2c.51-.4,1-.69,1.33-.93q.48-.09,1-.21A10.26,10.26,0,0,1,359,91M375.4,78.8c.5-.23,1.06-.67,2.52-1.5l.14-.07c-1.23,1.24-2.19,2.19-2.93,2.89.09-.44.19-.88.27-1.32m17.59,6,1.3-1.5a2.84,2.84,0,0,0,.38-.13,4.14,4.14,0,0,0,2-2.16h0l.07,0c.83.49,2.22-.34,2.92-.82L393,84.8M373.85,94a2.88,2.88,0,0,0-1.36,1.07c-.38.61-.6.54-.7.5h0A6.82,6.82,0,0,0,373,94.41c.24-.24.49-.51.73-.78l.07-.09v.17a1.53,1.53,0,0,0,0,.3m-.15-5.61a2.24,2.24,0,0,1-1.63.52,3.72,3.72,0,0,0,.88-.7,30.71,30.71,0,0,1,6.8-4.79c.91-.45,1.82-.92,2.72-1.43l-.31.23c-1.47,1-1.9,1.43-2.62,1.91a15.66,15.66,0,0,1-1.68,1,1.74,1.74,0,0,1-.55.76c-.55.43-1.17.35-1.47.88a1.08,1.08,0,0,0-.1.27c-.13.4-.59.91-2,1.36m3.48-15.31c.07,0-.16.35,0,.65s.31.21.34.33c.08.36-1.78,1.28-2,1s1.51-2.08,1.68-2m-.67-1c.06,0,0,.24,0,.32-.12.45-.6.72-.68.66s.53-1,.68-1m2.31,8.33a3.85,3.85,0,0,1,2.75-.68,3.66,3.66,0,0,1-.8.3l-1.31.84c-1,.77-2.14,1.56-3.35,2.34-.9.58-1.77,1.11-2.62,1.59a9.87,9.87,0,0,0,2-2,8.08,8.08,0,0,0,.67-1,1.94,1.94,0,0,0,.68,0c.91-.15,1.17-.89,2-1.46m3,5.86-.41.38L379,88.91a2,2,0,0,0-.43-.16c1.07-.84,2.15-1.67,3.26-2.47m-7.4,6.62a9,9,0,0,1,1.69-1.24,5.89,5.89,0,0,1,1.23-.33,4.24,4.24,0,0,1-.84.62,12.37,12.37,0,0,1-1.14.59c-.4.2-.8.39-1.19.62a3.07,3.07,0,0,1,.25-.26m5.19-.22A5.07,5.07,0,0,0,381.89,91a4.42,4.42,0,0,0,.68-1.31c.45-.21.92-.44,1.4-.7a20.6,20.6,0,0,0,4.55-3.43l-5.27,5.17a3.85,3.85,0,0,1-.86.85c-.45.32-.67.34-1.16.73a3.22,3.22,0,0,0-.68.65c-.36.49-.35.82-.67,1a1,1,0,0,1-.67,0c-.21.34-.43.66-.67,1a7.39,7.39,0,0,1-2,2c-.09-.08.53-1,3.09-4.21m-8.07-7.45a6.38,6.38,0,0,0,.46.45l-2.53,2.47a11.73,11.73,0,0,1-2,1.55,12.13,12.13,0,0,1-2,1c3.77-2.8,5.48-4.46,6.12-5.45m.87,23.18a6.25,6.25,0,0,1,.7-1.36,2.48,2.48,0,0,1,1.52-1l.5-.1v-1.07a4.88,4.88,0,0,0,2.69-1.94,17.1,17.1,0,0,1,1.84-1.77,4.55,4.55,0,0,0-.09,1c-2.27,2.19-4.72,4.34-7.17,6.29Zm12.29-9.84-.78.66a7.56,7.56,0,0,1,1.63-1.71,3.08,3.08,0,0,0-.85,1M396,100.46a27.71,27.71,0,0,1-2.69,2.28c-.63.47-1.17.83-1.64,1.14l-.26-.12c1.1-.89,2.57-2,4.59-3.3m2.91,4-.44.2.29-.4.15.2M365.44,93.93c.87-.63,1.56-1.23,2-1.63.82-.73,1.6-1.49,2.35-2.29,1.26-.26,1.61-.15,1.68,0,.3.63-3.9,2.7-6.37,4.68l-.42-.23.74-.53m23.73,6c.89-.6,1.8-1.19,2.71-1.76a6.09,6.09,0,0,1-2.9,3.28,8.25,8.25,0,0,0-1.3.72c-.4-.12-.79-.22-1.19-.31.88-.66,1.77-1.31,2.68-1.93"/></g></g></g><path id="Path_543" data-name="Path 543" class="cls-4" d="M243.35,91.94c15,1,30.23,1.16,44.4,4.79A178.38,178.38,0,0,1,323.39,110c19.06,9.89,35.26,26.45,46.57,44.5,17.33,27.81,26.89,58.65,26.52,94.11-.29,27.38-8.39,54.51-21.12,78.73-24.88,47.36-76.24,75-125.11,74.53-84.72-1.09-148.82-62.8-153.52-152-3.31-64.23,33.36-119.61,83.89-145.44A118.23,118.23,0,0,1,243.35,91.94Zm5-3.55c-5-.08-9.74.26-14.67.17a125,125,0,0,0-60.31,14.56c-53.06,27.66-88,87.56-81.94,154.73,8,92,85.33,156.37,173.52,146.4,49-5.54,90.25-32.09,114.47-73.94,14.82-25.5,23.28-54.33,23.29-84.28.77-34.09-8.9-64.75-23.36-90.08a120,120,0,0,0-33-37.56c-22.9-17-48.53-27.4-77.67-29.9-6.2-.53-14,0-20.35-.1Z"/><g id="Group_832" data-name="Group 832"><g class="cls-5"><g id="Group_45-2" data-name="Group 45-2"><path id="Path_33-2" data-name="Path 33-2" class="cls-6" d="M173.21,428.44a7.55,7.55,0,0,0-.8-.16,4.61,4.61,0,0,1-1.22-.92c-.7-.9-.69-2.25-1.69-3.22a6,6,0,0,0-2.7-1.45,3.17,3.17,0,0,0,.38-.7c1.27-3.38-3.74-8.14-8.84-12.87a97.18,97.18,0,0,0-7.72-6.47,10.51,10.51,0,0,0-2.35-5.09,10.65,10.65,0,0,0-3.35-2.61c.15-.43.36-1.06.6-1.84,1.48-4.82,1.13-5.8.92-6.23a4.67,4.67,0,0,0-1.83-1.78,7.76,7.76,0,0,0-3.94-1.21q5.54-7,11.08-13.93A152.52,152.52,0,0,0,165,353.8a15.5,15.5,0,0,0,7.12-6.05,14.61,14.61,0,0,0,2.16-7.25,5.51,5.51,0,0,0,.65-5.22,5.4,5.4,0,0,0-7.14-2.72,4,4,0,0,0-.46.23,22,22,0,0,0-2.6,1.91,3.5,3.5,0,0,0-1.9,0,20,20,0,0,0-6.32,3.19l-2,.39a118.06,118.06,0,0,0-12.56,3.24,3.41,3.41,0,0,0-1.84-1.78c-1.18-.41-2.32.18-3.66.89a14.8,14.8,0,0,0-4.25,3.42l-1.74.4a2.94,2.94,0,0,0-1.47.19L128,345q-4.94,1.16-9.87,2.35a4.14,4.14,0,0,0-4.37-3.88,3.4,3.4,0,0,0-.46.06l-1.28-2a4.25,4.25,0,0,0-2.39-3.67c-2.83-4.31-5.68-8.63-8.44-13a4.22,4.22,0,0,0-3-4.85A4.08,4.08,0,0,1,96.89,318a3.94,3.94,0,0,1,.11-2.28,5.11,5.11,0,0,0,.73-1.48A6.28,6.28,0,0,0,96.51,309a4,4,0,0,0-2.17-2.6,4.87,4.87,0,0,0-.13-2.54,5.34,5.34,0,0,0-5.37-3.64c-2.9.23-5.18,2.37-4.77,5.35a4.58,4.58,0,0,0,.18.73c-3.46,4.65-3.92,9.32-1.9,11.23a4.38,4.38,0,0,0,3.08,1.05c-.23,1.95-.46,3.89-.7,5.84a3.48,3.48,0,0,0-2,.57l-.39.26a5.7,5.7,0,0,0-1,.75l-.14.12a7.57,7.57,0,0,0-.8.9l.07,0a3.9,3.9,0,0,0-.07,4.12,3.84,3.84,0,0,0,.59.74,3.68,3.68,0,0,0,1,1.24c-.24.45-.46.9-.66,1.37-2,4.83-1,9.71,0,12.73-.58,2.94-1.22,5.87-2,8.79a2.44,2.44,0,0,0-1,1.16,1.64,1.64,0,0,0-.1.38,21.74,21.74,0,0,0-14.62,3.74c-2.37.54-4.73,1.07-7.1,1.59l-20.78,4.62q-4.36,1-8.7,2.18a2.17,2.17,0,0,0-.53,4l3.66,2.05a5.05,5.05,0,0,0-.18,2,7.82,7.82,0,0,0,.87,2.57,7.44,7.44,0,0,0,2.64,2.56A6.14,6.14,0,0,0,34.74,386a7.45,7.45,0,0,0,8.81,1.75,6.44,6.44,0,0,0,1.86-1.5,1.18,1.18,0,0,0-.21.73c.21,2.19,8.32,3.1,11.28,3.38l1.9,1a17.48,17.48,0,0,0,4.74,3.48,17.9,17.9,0,0,0,4.71,1.63l1.48.8c-.45.73-1,1.72-1.61,2.92a35.73,35.73,0,0,0-1.83,4.44,10.24,10.24,0,0,0-.92,3.56,5.87,5.87,0,0,0,1.47,3.34,3.19,3.19,0,0,1-.32.64.77.77,0,0,0,1.33.76,11.06,11.06,0,0,1,.63-1,6.39,6.39,0,0,0,1.45,0q-.9,6.34-1.7,12.7c-.47.66-1.12,1.54-2.52,3.25-1.86,2.25-4.19,4.48-4.43,7.5A3.7,3.7,0,0,0,62,438.47a19.61,19.61,0,0,0-3,8.4c-.23,2.23-.42,4.23.8,6.17,1.41,2.24,4.38,3.95,6.24,3.23a3.14,3.14,0,0,0,.75-.6,2.19,2.19,0,0,0,2.39-.48c7.31-7.73,13.77-16.24,20.6-24.37,3.67-4.38,7.41-8.71,11.34-12.87a4.66,4.66,0,0,0,4.4-1.07c2.41-2.1,4.85-4.18,7.34-6.2a25.8,25.8,0,0,1,4.24,1,1.76,1.76,0,0,0-.07,1,1.52,1.52,0,0,0,.06.2c.27,1.26-1.09,2-1.09,2.72,0,1.16,3.18,2.8,6.34,2.39a9.34,9.34,0,0,0,5.19-2.7l.52.2a5.64,5.64,0,0,0,2.84,3.4,6.1,6.1,0,0,0,5.18-.06l1.59.7a1.5,1.5,0,0,0-.07.63c.13,1.47,2.61,2.75,4.75,2.6a5.22,5.22,0,0,0,1.6-.4,41.34,41.34,0,0,0,12.59,8.1c2.77,1.08,6.88,2.23,9.3,5.8a8.58,8.58,0,0,0,1.58,1.88,6.17,6.17,0,0,0,8.72-.33,5,5,0,0,0,.66-.85,5.81,5.81,0,0,0-2.15-7.94,5.51,5.51,0,0,0-1.42-.58m-23.1-10.67c.5-.44.57-.58,1.06-1a12.15,12.15,0,0,1,2.94-2l.08.1a13.13,13.13,0,0,0-3,3.43l-1.12-.52m-38.87-30.14q-3.77,3-7.4,6.25l0-.06q3.22-3.3,6.42-6.6,3.38-2.91,6.86-5.66c5.47-4.3,11.18-8.32,17-12.15,1.84-1.21,3.71-2.39,5.59-3.55l.13.09q-3,2.75-6,5.44c-8.1,4.56-15.51,10.55-22.54,16.24m10.26,2.42-2.06,1.74c.32-.46.61-.93.89-1.42.4-.1.79-.2,1.17-.32m-44.06,24.4a15.9,15.9,0,0,1,2.65-4.33,16.74,16.74,0,0,0,1.76-1.71c1.1-1.29,1.55-2.33,2.64-2.56a2.17,2.17,0,0,1,.88,0,4.72,4.72,0,0,1,.88-1.71,5.71,5.71,0,0,1,2.63-1.71,46.52,46.52,0,0,0,7-3.41l-9.67,7.69c-3.4,2.78-6.33,5.4-8.8,7.74m4.54,9L80.07,425l-3.92,3a39.19,39.19,0,0,0,2.23-3.46,3.29,3.29,0,0,0,2.18-1.39,3.93,3.93,0,0,1,.84.18ZM47.4,376.67c-1.06.53-2,.9-2.55,1.13a33.21,33.21,0,0,1,5.27-5.13c1.34-1,2.52-1.8,3.48-2.42l2.5-.54a26.61,26.61,0,0,1-8.7,7m43-31.77c1.3-.58,2.78-1.74,6.6-3.9l.36-.18c-3.21,3.25-5.72,5.71-7.65,7.55.24-1.16.48-2.31.7-3.47m46,15.7,3.4-3.91a9.19,9.19,0,0,0,1-.36,10.74,10.74,0,0,0,5.33-5.63h0l.18.11c2.16,1.27,5.79-.9,7.63-2.15l-17.58,12m-50,24.06a7.55,7.55,0,0,0-3.55,2.81c-1,1.58-1.55,1.4-1.81,1.31h0a17.56,17.56,0,0,0,3.21-3.06c.64-.62,1.27-1.34,1.9-2.05l.19-.22v.43a3.43,3.43,0,0,0,.07.78M85.94,370a5.92,5.92,0,0,1-4.27,1.37,10.1,10.1,0,0,0,2.3-1.81A80.86,80.86,0,0,1,101.74,357q3.57-1.74,7.12-3.71c-.2.13-.48.34-.83.59-3.85,2.75-5,3.74-6.84,5a42,42,0,0,1-4.4,2.56,4.75,4.75,0,0,1-1.44,2c-1.43,1.13-3.06.92-3.84,2.29a3,3,0,0,0-.27.7c-.35,1.06-1.55,2.39-5.3,3.57M95,330c.17.12-.41.93,0,1.71.29.56.81.56.88.85.21,1-4.65,3.35-5.28,2.56s4-5.42,4.4-5.12m-1.76-2.56c.17.07,0,.65,0,.85-.3,1.17-1.57,1.87-1.75,1.71s1.38-2.71,1.75-2.56m6,21.77c3.08-2.21,7.14-2,7.2-1.76a11.06,11.06,0,0,1-2.1.79L101,350.39c-2.67,2-5.59,4.08-8.76,6.13-2.33,1.51-4.62,2.9-6.83,4.16a26.91,26.91,0,0,0,5.27-5.12A24.84,24.84,0,0,0,92.43,353a5.2,5.2,0,0,0,1.76,0c2.38-.41,3.07-2.33,5.13-3.81m7.81,15.31-1.08,1-6.31,5.89a3.8,3.8,0,0,0-1.12-.42c2.79-2.21,5.62-4.38,8.51-6.46m-19.34,17.3a24.19,24.19,0,0,1,4.42-3.25,14.93,14.93,0,0,1,3.23-.85,12,12,0,0,1-2.2,1.61c-1,.59-2,1.07-3,1.55s-2.08,1-3.11,1.61c.21-.24.43-.46.65-.67m13.55-.6a12.92,12.92,0,0,0,6-4.36,11.88,11.88,0,0,0,1.76-3.41c1.18-.55,2.4-1.15,3.64-1.84a52.62,52.62,0,0,0,11.9-9l-13.77,13.53a10.43,10.43,0,0,1-2.25,2.2c-1.17.85-1.76.89-3,1.9a8.64,8.64,0,0,0-1.76,1.71c-.95,1.29-.92,2.16-1.75,2.56a2.33,2.33,0,0,1-1.76,0,29.92,29.92,0,0,1-1.76,2.57c-2.19,2.82-5,5.34-5.27,5.12s1.39-2.66,8.07-11M80.28,361.74c.4.43.8.83,1.18,1.18l-6.6,6.44a31.39,31.39,0,0,1-5.33,4.06A32.05,32.05,0,0,1,64.26,376c9.85-7.32,14.33-11.65,16-14.24m2.26,60.59a17,17,0,0,1,1.83-3.57,6.52,6.52,0,0,1,4-2.59l1.31-.25v-2.83a12.77,12.77,0,0,0,7-5.07,44.66,44.66,0,0,1,4.8-4.63,13.57,13.57,0,0,0-.24,2.54c-5.92,5.73-12.33,11.34-18.72,16.43Zm32.13-25.72-2,1.72a20.26,20.26,0,0,1,4.24-4.48,8.33,8.33,0,0,0-2.2,2.76m29.63,4.92a70.26,70.26,0,0,1-7,6c-1.63,1.21-3.06,2.17-4.28,3l-.69-.31c2.89-2.33,6.74-5.15,12-8.65m7.62,10.33-1.15.52.76-1.05.39.53M64.33,384.45c2.29-1.65,4.08-3.22,5.28-4.27a84.64,84.64,0,0,0,6.15-6c3.3-.66,4.21-.4,4.4,0C81,375.85,70,381.26,63.5,386.44l-1.09-.6,1.93-1.39m62,15.67c2.33-1.57,4.69-3.12,7.09-4.6-2.5,5.38-5.38,7.58-7.59,8.57a21.64,21.64,0,0,0-3.39,1.9c-1-.31-2.08-.58-3.12-.8q3.43-2.62,7-5.06"/></g></g></g><rect class="cls-1" width="493.51" height="493.51"/></g></g></svg>