<svg xmlns="http://www.w3.org/2000/svg" xmlns:xlink="http://www.w3.org/1999/xlink" viewBox="0 0 493.51 493.51"><defs><style>.cls-1{fill:none;}.cls-2{fill:#ffc671;}.cls-3{clip-path:url(#clip-path);}</style><clipPath id="clip-path"><rect class="cls-1" x="13.87" y="287.41" width="164.66" height="169.18"/></clipPath></defs><g id="Layer_2" data-name="Layer 2"><g id="Layer_1-2" data-name="Layer 1"><path id="Path_542" data-name="Path 542" class="cls-2" d="M243.06,100.63c14,1,28.14,1.08,41.34,4.46a166.57,166.57,0,0,1,33.19,12.39c17.75,9.21,32.83,24.63,43.36,41.44,16.14,25.89,25.05,54.61,24.7,87.63-.27,25.5-7.82,50.76-19.67,73.31-23.17,44.1-71,69.86-116.5,69.4-78.89-1-138.58-58.47-143-141.51-3.08-59.81,31.07-111.38,78.12-135.43A110.17,110.17,0,0,1,243.06,100.63Zm4.66-3.3c-4.64-.08-9.07.24-13.67.15A116.35,116.35,0,0,0,177.9,111c-49.42,25.76-82,81.54-76.3,144.08,7.42,85.7,79.45,145.62,161.58,136.34,45.62-5.16,84-29.89,106.59-68.85,13.8-23.75,21.68-50.59,21.69-78.48.71-31.75-8.29-60.3-21.75-83.89a111.88,111.88,0,0,0-30.71-35c-21.32-15.81-45.2-25.51-72.33-27.84-5.77-.49-13.07,0-19-.09Z"/><g id="Group_837" data-name="Group 837"><g class="cls-3"><g id="Group_45" data-name="Group 45"><path id="Path_33" data-name="Path 33" class="cls-2" d="M173.73,426.14c-.28-.07-.57-.13-.85-.18a4.62,4.62,0,0,1-1.33-1c-.75-1-.74-2.43-1.83-3.48a6.37,6.37,0,0,0-2.91-1.57,3.68,3.68,0,0,0,.4-.76c1.38-3.66-4.05-8.8-9.56-13.93q-4-3.71-8.35-7a11.25,11.25,0,0,0-2.55-5.5,11.47,11.47,0,0,0-3.62-2.82c.16-.47.39-1.15.65-2,1.6-5.22,1.22-6.27,1-6.74a4.94,4.94,0,0,0-2-1.92,8.24,8.24,0,0,0-4.26-1.31l12-15.08a164,164,0,0,0,14.29-17.48,16.7,16.7,0,0,0,7.7-6.54,15.87,15.87,0,0,0,2.34-7.84,6,6,0,0,0,.7-5.65,5.86,5.86,0,0,0-7.74-2.94l-.48.24a25,25,0,0,0-2.82,2.08,3.76,3.76,0,0,0-2.05,0,21.74,21.74,0,0,0-6.84,3.46l-2.2.42a124.41,124.41,0,0,0-13.6,3.5,3.67,3.67,0,0,0-2-1.93c-1.28-.44-2.51.19-4,1a16,16,0,0,0-4.6,3.71l-1.89.43a3.2,3.2,0,0,0-1.59.2l-1,.41q-5.34,1.23-10.68,2.54a4.47,4.47,0,0,0-4.73-4.2,4.1,4.1,0,0,0-.49.06l-1.38-2.12a4.62,4.62,0,0,0-2.59-4c-3.07-4.66-6.15-9.33-9.14-14a4.55,4.55,0,0,0-3.27-5.24,4.56,4.56,0,0,1-1.36-2.25,4.33,4.33,0,0,1,.12-2.47,5.58,5.58,0,0,0,.8-1.6c.82-2.75-1-5.23-1.32-5.7a4.34,4.34,0,0,0-2.35-2.82,5.17,5.17,0,0,0-.14-2.73,5.78,5.78,0,0,0-5.8-3.95c-3.14.25-5.61,2.56-5.16,5.78a5.47,5.47,0,0,0,.19.8c-3.73,5-4.23,10.08-2,12.15a4.78,4.78,0,0,0,3.34,1.14q-.39,3.15-.76,6.3a3.76,3.76,0,0,0-2.23.63l-.41.27a6,6,0,0,0-1.11.81l-.15.14a7.27,7.27,0,0,0-.87,1l.07,0a4.24,4.24,0,0,0-.07,4.46,4.5,4.5,0,0,0,.64.8A3.93,3.93,0,0,0,75,323.05a15.48,15.48,0,0,0-.71,1.48c-2.21,5.23-1.07,10.5,0,13.77-.62,3.18-1.32,6.36-2.13,9.51a2.65,2.65,0,0,0-1.1,1.26,1.82,1.82,0,0,0-.11.4c-3.93-.65-10.79.45-15.82,4q-3.83.89-7.68,1.72l-22.47,5c-3.15.75-6.28,1.53-9.41,2.36a2.35,2.35,0,0,0-.57,4.3l4,2.21a5.34,5.34,0,0,0-.2,2.14,8.23,8.23,0,0,0,.95,2.76,7.88,7.88,0,0,0,2.85,2.77A6.55,6.55,0,0,0,24,380.22a8.06,8.06,0,0,0,9.53,1.89,6.75,6.75,0,0,0,2-1.62,1.24,1.24,0,0,0-.23.79c.23,2.37,9,3.36,12.2,3.66l2.05,1.13a19.47,19.47,0,0,0,10.23,5.52l1.6.87c-.49.8-1.11,1.86-1.75,3.16a38.87,38.87,0,0,0-2,4.81c-.7,2-1,3-1,3.84a6.29,6.29,0,0,0,1.59,3.61,3.52,3.52,0,0,1-.35.7.83.83,0,0,0,1.44.82,9.83,9.83,0,0,1,.68-1.12,6.87,6.87,0,0,0,1.57,0q-1,6.87-1.84,13.75c-.51.71-1.2,1.66-2.72,3.51-2,2.44-4.53,4.84-4.79,8.11a4,4,0,0,0,1.2,3.36,21.15,21.15,0,0,0-3.23,9.09c-.26,2.41-.46,4.58.86,6.68,1.52,2.42,4.73,4.26,6.74,3.48a3.27,3.27,0,0,0,.83-.65,2.32,2.32,0,0,0,2.57-.5c7.91-8.37,14.9-17.57,22.28-26.36,4-4.74,8-9.42,12.27-13.93a5,5,0,0,0,4.76-1.15q3.92-3.42,7.94-6.71A27,27,0,0,1,113,408a2,2,0,0,0-.08,1.13,1.29,1.29,0,0,1,.06.21c.3,1.36-1.17,2.11-1.16,2.94,0,1.26,3.43,3,6.85,2.59a10.23,10.23,0,0,0,5.62-2.93c.18.08.37.14.55.21a6.09,6.09,0,0,0,3.08,3.68,6.57,6.57,0,0,0,5.6-.06l1.72.75a1.74,1.74,0,0,0-.08.68c.15,1.59,2.82,3,5.14,2.81a5.36,5.36,0,0,0,1.73-.43,44.82,44.82,0,0,0,13.62,8.76c3,1.17,7.44,2.41,10.06,6.27a9.56,9.56,0,0,0,1.71,2,6.68,6.68,0,0,0,9.44-.35,7.87,7.87,0,0,0,.72-.92,6.3,6.3,0,0,0-2.34-8.6,6,6,0,0,0-1.53-.63m-25-11.51c.54-.48.62-.64,1.15-1.12a13.39,13.39,0,0,1,3.18-2.15l.08.11a14.38,14.38,0,0,0-3.19,3.72l-1.22-.56M106.7,382q-4.08,3.3-8,6.77l0-.07q3.48-3.57,6.94-7.15,3.65-3.13,7.42-6.12c5.91-4.65,12.09-9,18.38-13.14q3-2,6.05-3.84a1.21,1.21,0,0,0,.14.1q-3.24,3-6.52,5.88c-8.76,4.94-16.78,11.42-24.38,17.57m11.09,2.61-2.22,1.89c.34-.5.66-1,1-1.54.43-.1.85-.22,1.26-.35M70.13,411A17.34,17.34,0,0,1,73,406.34a18.44,18.44,0,0,0,1.9-1.85c1.19-1.4,1.68-2.52,2.85-2.77a2.58,2.58,0,0,1,1,0,5.09,5.09,0,0,1,1-1.85A6,6,0,0,1,82.51,398a53.46,53.46,0,0,0,7.61-3.7l-10.46,8.31c-3.69,3-6.86,5.85-9.53,8.38M75,420.81,73,422.41c-1.38,1.06-2.8,2.14-4.23,3.25.86-1.21,1.67-2.46,2.4-3.74a3.57,3.57,0,0,0,2.36-1.5,3.16,3.16,0,0,1,.91.2Zm-37.4-50.68c-1.15.57-2.13,1-2.76,1.22a36.06,36.06,0,0,1,5.71-5.54c1.45-1.13,2.72-1.95,3.76-2.62l2.71-.59a28.82,28.82,0,0,1-9.41,7.54m46.48-34.36c1.4-.64,3-1.89,7.14-4.23l.38-.2c-3.47,3.51-6.19,6.18-8.28,8.16.27-1.24.53-2.49.76-3.74m49.73,17,3.69-4.24a10.48,10.48,0,0,0,1.07-.38,11.69,11.69,0,0,0,5.77-6.1h0l.2.12c2.33,1.37,6.27-1,8.26-2.33l-19,12.94m-54.12,26a8.29,8.29,0,0,0-3.85,3c-1.06,1.72-1.67,1.52-2,1.42h0a19.42,19.42,0,0,0,3.47-3.31c.69-.68,1.38-1.45,2-2.22l.21-.23V378a4,4,0,0,0,.08.84m-.4-15.87a6.39,6.39,0,0,1-4.62,1.49,11,11,0,0,0,2.49-2,87.18,87.18,0,0,1,19.22-13.56c2.57-1.27,5.14-2.6,7.7-4l-.9.64c-4.16,3-5.37,4-7.4,5.41a44.35,44.35,0,0,1-4.76,2.77,5,5,0,0,1-1.56,2.14c-1.53,1.22-3.3,1-4.14,2.48a3.34,3.34,0,0,0-.3.76c-.37,1.14-1.67,2.58-5.73,3.85m9.83-43.3c.19.13-.44,1,0,1.85.31.6.88.6,1,.93.23,1-5,3.62-5.71,2.77s4.28-5.87,4.76-5.54m-1.9-2.78c.18.08,0,.7,0,.93-.32,1.26-1.7,2-1.9,1.85s1.5-2.94,1.9-2.78m6.54,23.55c3.32-2.39,7.71-2.12,7.78-1.9a11.53,11.53,0,0,1-2.27.86l-3.7,2.36c-2.9,2.18-6.05,4.41-9.47,6.63q-3.8,2.44-7.4,4.5a28.24,28.24,0,0,0,7.61-8.32,5.51,5.51,0,0,0,1.9,0c2.58-.44,3.32-2.52,5.54-4.12M102.25,357,101.09,358l-6.83,6.37a4.42,4.42,0,0,0-1.21-.45c3-2.39,6.08-4.73,9.2-7M81.34,375.68a26.26,26.26,0,0,1,4.79-3.52,16.07,16.07,0,0,1,3.48-.91A14,14,0,0,1,87.23,373c-1.08.63-2.16,1.15-3.22,1.67s-2.25,1.09-3.37,1.74c.23-.25.47-.49.7-.72M96,375a14,14,0,0,0,6.47-4.72,12.6,12.6,0,0,0,1.9-3.7c1.29-.59,2.61-1.24,4-2a58,58,0,0,0,12.87-9.7l-14.9,14.63a11.24,11.24,0,0,1-2.44,2.38c-1.26.92-1.9,1-3.28,2.06a9.26,9.26,0,0,0-1.9,1.85c-1,1.4-1,2.34-1.9,2.77a2.6,2.6,0,0,1-1.9,0,31,31,0,0,1-1.9,2.78c-2.37,3-5.42,5.77-5.71,5.54S88.77,384.08,96,375M73.21,354c.43.47.87.9,1.28,1.28l-7.14,7a34.05,34.05,0,0,1-5.76,4.38,33.7,33.7,0,0,1-5.7,2.77c10.65-7.92,15.5-12.6,17.32-15.4m2.45,65.54a18.52,18.52,0,0,1,2-3.86,7,7,0,0,1,4.28-2.8l1.43-.27v-3.06A13.72,13.72,0,0,0,91,404.05a49.1,49.1,0,0,1,5.2-5,14.79,14.79,0,0,0-.26,2.74c-6.41,6.2-13.34,12.27-20.25,17.77Zm34.75-27.82-2.2,1.86a21.74,21.74,0,0,1,4.59-4.84,8.85,8.85,0,0,0-2.38,3M142.47,397a75.8,75.8,0,0,1-7.61,6.47c-1.76,1.31-3.31,2.35-4.62,3.22l-.75-.33c3.12-2.52,7.28-5.58,13-9.36m8.24,11.17-1.25.56c.28-.37.55-.75.83-1.13l.42.57M56,378.56c2.48-1.79,4.42-3.49,5.71-4.62a90.36,90.36,0,0,0,6.66-6.47c3.56-.72,4.55-.43,4.75,0,.85,1.79-11,7.64-18,13.24l-1.18-.65,2.08-1.5m67.11,16.95c2.53-1.7,5.08-3.37,7.67-5-2.7,5.82-5.81,8.2-8.21,9.27a22.82,22.82,0,0,0-3.67,2.06c-1.12-.34-2.25-.63-3.37-.87,2.48-1.9,5-3.73,7.58-5.48"/></g></g></g><rect class="cls-1" width="493.51" height="493.51"/></g></g></svg>