<svg xmlns="http://www.w3.org/2000/svg" xmlns:xlink="http://www.w3.org/1999/xlink" viewBox="0 0 493.51 493.51"><defs><style>.cls-1{fill:none;}.cls-2{clip-path:url(#clip-path);}.cls-3{fill:#3c9cb3;}.cls-4{clip-path:url(#clip-path-2);}.cls-5{fill:#ffc671;}</style><clipPath id="clip-path"><rect class="cls-1" x="290.14" y="3.4" width="131.13" height="134.72"/></clipPath><clipPath id="clip-path-2"><rect class="cls-1" x="76.4" y="376.95" width="41.04" height="42.16"/></clipPath></defs><g id="Layer_2" data-name="Layer 2"><g id="Layer_1-2" data-name="Layer 1"><g id="Group_833" data-name="Group 833"><g class="cls-2"><g id="Group_45" data-name="Group 45"><path id="Path_33" data-name="Path 33" class="cls-3" d="M417.45,113.89l-.68-.15a3.91,3.91,0,0,1-1.06-.79c-.6-.78-.59-1.93-1.45-2.77a5.06,5.06,0,0,0-2.32-1.25,2.73,2.73,0,0,0,.32-.61c1.1-2.91-3.23-7-7.62-11.08A86.48,86.48,0,0,0,398,91.66a9,9,0,0,0-2-4.38A9.21,9.21,0,0,0,393.08,85c.13-.37.31-.91.52-1.58,1.28-4.16,1-5,.79-5.37a4,4,0,0,0-1.58-1.53,6.56,6.56,0,0,0-3.39-1l9.54-12a130.72,130.72,0,0,0,11.38-13.91,13.38,13.38,0,0,0,6.13-5.22,12.73,12.73,0,0,0,1.86-6.24,4.74,4.74,0,0,0,.56-4.5,4.66,4.66,0,0,0-6.16-2.34,2.75,2.75,0,0,0-.38.2,18,18,0,0,0-2.25,1.65,2.92,2.92,0,0,0-1.63,0A17.49,17.49,0,0,0,403,35.89c-.58.1-1.16.22-1.75.34A98.08,98.08,0,0,0,390.45,39a2.92,2.92,0,0,0-1.58-1.53c-1-.35-2,.15-3.16.76a12.89,12.89,0,0,0-3.66,2.95l-1.5.34a2.63,2.63,0,0,0-1.27.16l-.79.32c-2.83.66-5.67,1.34-8.5,2a3.57,3.57,0,0,0-3.76-3.35l-.4.05-1.1-1.69a3.67,3.67,0,0,0-2.06-3.15c-2.45-3.71-4.9-7.43-7.28-11.18a3.62,3.62,0,0,0-2.6-4.18,3.48,3.48,0,0,1-1-3.75,4.36,4.36,0,0,0,.63-1.28,5.42,5.42,0,0,0-1-4.53,3.5,3.5,0,0,0-1.88-2.25,4.15,4.15,0,0,0-.11-2.18,4.59,4.59,0,0,0-4.63-3.14c-2.5.2-4.46,2-4.1,4.6a3.5,3.5,0,0,0,.15.64c-3,4-3.38,8-1.64,9.67a3.8,3.8,0,0,0,2.66.91c-.2,1.67-.41,3.35-.61,5a3,3,0,0,0-1.77.5l-.33.22a5.08,5.08,0,0,0-.88.64l-.12.11a7.16,7.16,0,0,0-.69.77l.06,0a3.32,3.32,0,0,0,.44,4.19,3.23,3.23,0,0,0,.87,1.07c-.21.39-.4.78-.57,1.18-1.76,4.16-.85,8.37.05,11-.5,2.53-1.06,5.06-1.7,7.57a2.09,2.09,0,0,0-.88,1,1.68,1.68,0,0,0-.09.32A18.8,18.8,0,0,0,323,56.05l-6.11,1.37-17.89,4q-3.75.89-7.49,1.88a1.87,1.87,0,0,0-.46,3.42l3.16,1.76a4.25,4.25,0,0,0-.16,1.7,6.65,6.65,0,0,0,.75,2.21,6.32,6.32,0,0,0,2.27,2.21,5.26,5.26,0,0,0,1.08,2.73,6.41,6.41,0,0,0,7.59,1.5,5.42,5.42,0,0,0,1.61-1.29,1,1,0,0,0-.19.63c.18,1.89,7.17,2.67,9.72,2.92l1.63.9a15.47,15.47,0,0,0,4.09,3,15.75,15.75,0,0,0,4.06,1.4l1.27.68c-.39.64-.88,1.49-1.39,2.52A32.8,32.8,0,0,0,325,93.41a8.75,8.75,0,0,0-.78,3.06,5,5,0,0,0,1.27,2.88,3.55,3.55,0,0,1-.28.55.66.66,0,0,0,1.14.65c.16-.3.35-.6.54-.89a5.8,5.8,0,0,0,1.25,0c-.51,3.65-1,7.29-1.46,11-.4.56-1,1.32-2.17,2.79-1.6,1.94-3.61,3.86-3.82,6.46a3.21,3.21,0,0,0,1,2.68,16.9,16.9,0,0,0-2.57,7.24c-.2,1.92-.37,3.64.69,5.32,1.21,1.92,3.76,3.4,5.36,2.77a2.57,2.57,0,0,0,.66-.52,1.86,1.86,0,0,0,2.05-.4c6.3-6.66,11.87-14,17.74-21,3.17-3.77,6.39-7.5,9.78-11.09a4,4,0,0,0,3.79-.92c2.08-1.81,4.18-3.6,6.32-5.34a22.72,22.72,0,0,1,3.65.84,1.54,1.54,0,0,0-.06.9c0,.08,0,.09,0,.17.24,1.09-.93,1.68-.93,2.34,0,1,2.73,2.41,5.46,2.06a8.06,8.06,0,0,0,4.47-2.33l.44.17a4.86,4.86,0,0,0,2.45,2.93,5.23,5.23,0,0,0,4.46,0l1.37.6a1.24,1.24,0,0,0-.06.54c.12,1.27,2.25,2.37,4.1,2.24a4.73,4.73,0,0,0,1.38-.34,35.44,35.44,0,0,0,10.84,7c2.38.93,5.92,1.93,8,5a7.55,7.55,0,0,0,1.36,1.62A5.32,5.32,0,0,0,420,122a5.1,5.1,0,0,0,.57-.73,5,5,0,0,0-1.86-6.85,4.82,4.82,0,0,0-1.22-.5m-19.91-9.17c.43-.38.5-.5.92-.89a10.83,10.83,0,0,1,2.53-1.71l.07.09a11.84,11.84,0,0,0-2.55,3l-1-.45m-33.48-26c-2.16,1.75-4.29,3.54-6.37,5.38l0,0,5.53-5.69c1.93-1.67,3.9-3.29,5.91-4.88,4.71-3.7,9.63-7.16,14.64-10.46,1.58-1,3.19-2.06,4.81-3.06l.12.08q-2.58,2.37-5.2,4.68c-7,3.93-13.36,9.09-19.42,14m8.84,2.08-1.77,1.5c.27-.4.52-.8.76-1.23.35-.08.68-.18,1-.28m-37.94,21a13.39,13.39,0,0,1,2.29-3.73,14,14,0,0,0,1.51-1.47c.95-1.11,1.34-2,2.27-2.21a1.94,1.94,0,0,1,.76,0,4.21,4.21,0,0,1,.76-1.47,4.92,4.92,0,0,1,2.27-1.47,41.3,41.3,0,0,0,6.06-2.94l-8.33,6.62c-2.94,2.4-5.46,4.66-7.59,6.67m3.91,7.8-1.64,1.27-3.37,2.59c.68-1,1.32-2,1.91-3a2.87,2.87,0,0,0,1.88-1.2,2.65,2.65,0,0,1,.73.16ZM309.08,69.29c-.92.45-1.7.77-2.2,1a28.75,28.75,0,0,1,4.54-4.42,36.17,36.17,0,0,1,3-2.08l2.15-.47a22.75,22.75,0,0,1-7.49,6m37-27.37c1.12-.5,2.39-1.5,5.69-3.36l.3-.16c-2.77,2.8-4.93,4.93-6.59,6.5.21-1,.41-2,.6-3M385.7,55.45l2.94-3.37a6.61,6.61,0,0,0,.85-.3,9.31,9.31,0,0,0,4.6-4.85l0,0,.16.1c1.85,1.1,5-.77,6.57-1.85L385.7,55.46M342.6,76.18a6.57,6.57,0,0,0-3.06,2.42c-.86,1.36-1.34,1.21-1.56,1.13h0a15.39,15.39,0,0,0,2.77-2.64c.55-.54,1.1-1.15,1.63-1.77.06,0,.11-.12.17-.18v.37a2.54,2.54,0,0,0,.06.67m-.32-12.63a5.12,5.12,0,0,1-3.68,1.18,8.36,8.36,0,0,0,2-1.57,70.2,70.2,0,0,1,15.3-10.8q3.09-1.5,6.13-3.2l-.71.51C358,52,357,52.89,355.41,54a36.71,36.71,0,0,1-3.79,2.21,4,4,0,0,1-1.24,1.7c-1.22,1-2.63.79-3.3,2a2.57,2.57,0,0,0-.23.6c-.3.91-1.34,2.06-4.57,3.07m7.83-34.48c.15.1-.36.8,0,1.47.25.48.7.48.76.74.18.82-4,2.88-4.55,2.21s3.4-4.68,3.79-4.42m-1.52-2.21c.14.06.05.56,0,.74-.25,1-1.35,1.61-1.51,1.47s1.19-2.34,1.51-2.21m5.2,18.76a8.77,8.77,0,0,1,6.2-1.52,8.67,8.67,0,0,1-1.8.68l-2.95,1.88c-2.3,1.74-4.81,3.51-7.54,5.28-2,1.3-4,2.49-5.89,3.59a23.19,23.19,0,0,0,4.54-4.42,22.06,22.06,0,0,0,1.52-2.2,4.78,4.78,0,0,0,1.51,0c2.06-.36,2.65-2,4.42-3.29m6.73,13.19-.93.85-5.43,5.07a4.19,4.19,0,0,0-1-.36c2.4-1.9,4.84-3.77,7.33-5.56M343.87,73.7a20.88,20.88,0,0,1,3.81-2.8,12.8,12.8,0,0,1,2.78-.73,10.77,10.77,0,0,1-1.9,1.39c-.86.51-1.72.92-2.57,1.33s-1.79.87-2.68,1.39c.19-.2.37-.4.56-.58m11.68-.51a11.14,11.14,0,0,0,5.16-3.76,10.12,10.12,0,0,0,1.51-2.94c1-.47,2.08-1,3.14-1.58a45.51,45.51,0,0,0,10.25-7.72L363.75,68.83a9,9,0,0,1-1.94,1.9c-1,.73-1.51.77-2.61,1.64a7.31,7.31,0,0,0-1.52,1.47c-.82,1.12-.79,1.86-1.51,2.21a2.1,2.1,0,0,1-1.52,0,25.35,25.35,0,0,1-1.51,2.21c-1.89,2.43-4.32,4.6-4.55,4.41s1.2-2.28,7-9.48M337.4,56.43c.34.37.69.71,1,1L332.73,63a26.9,26.9,0,0,1-4.59,3.5,28,28,0,0,1-4.54,2.21c8.49-6.31,12.35-10.05,13.8-12.27m2,52.19a14.16,14.16,0,0,1,1.58-3.07,5.57,5.57,0,0,1,3.41-2.24l1.13-.22v-2.43a11,11,0,0,0,6.07-4.37,37.87,37.87,0,0,1,4.13-4,11.42,11.42,0,0,0-.21,2.18c-5.1,4.94-10.62,9.78-16.12,14.16ZM367,86.46,365.27,88a17.38,17.38,0,0,1,3.65-3.86,7.29,7.29,0,0,0-1.9,2.37m25.53,4.25a60.61,60.61,0,0,1-6.06,5.15c-1.4,1-2.64,1.87-3.68,2.57q-.3-.15-.6-.27c2.48-2,5.8-4.44,10.34-7.45m6.56,8.89-1,.45.65-.9c.12.15.23.3.34.46M323.66,76a57.64,57.64,0,0,0,4.55-3.68,71.51,71.51,0,0,0,5.3-5.15c2.84-.57,3.62-.34,3.78,0,.68,1.42-8.8,6.08-14.35,10.54l-.94-.51,1.66-1.2m53.44,13.5c2-1.36,4-2.69,6.11-4-2.15,4.64-4.63,6.53-6.54,7.39a18,18,0,0,0-2.91,1.63c-.9-.27-1.8-.5-2.69-.69,2-1.51,4-3,6-4.36"/></g></g></g><path id="Path_544" data-name="Path 544" class="cls-3" d="M240.56,96.63c14.43,1,29.08,1.12,42.71,4.61A171.84,171.84,0,0,1,317.55,114c18.33,9.52,33.91,25.45,44.8,42.81,16.67,26.75,25.87,56.41,25.51,90.53-.28,26.33-8.07,52.43-20.31,75.73-23.94,45.55-73.34,72.16-120.35,71.69C165.71,393.74,104,334.38,99.52,248.61c-3.18-61.79,32.09-115.06,80.69-139.91A113.87,113.87,0,0,1,240.56,96.63Zm4.82-3.41c-4.79-.09-9.38.24-14.12.16a120.21,120.21,0,0,0-58,14c-51,26.61-84.67,84.22-78.82,148.84,7.67,88.53,82.08,150.42,166.91,140.83,47.13-5.33,86.82-30.87,110.12-71.12,14.25-24.53,22.4-52.26,22.4-81.07.74-32.8-8.56-62.29-22.47-86.65a115.52,115.52,0,0,0-31.72-36.14C317.64,105.74,293,95.71,265,93.31c-6-.51-13.49,0-19.57-.1Z"/><g id="Group_834" data-name="Group 834"><g class="cls-4"><g id="Group_45-2" data-name="Group 45-2"><path id="Path_33-2" data-name="Path 33-2" class="cls-5" d="M116.24,411.52l-.21,0a1.2,1.2,0,0,1-.33-.25c-.19-.24-.19-.61-.46-.87a1.54,1.54,0,0,0-.72-.39,1.14,1.14,0,0,0,.1-.19c.34-.91-1-2.19-2.39-3.47a24.57,24.57,0,0,0-2.08-1.74,2.86,2.86,0,0,0-.63-1.38,3.08,3.08,0,0,0-.9-.7c0-.11.1-.28.16-.5.4-1.3.3-1.56.25-1.67a1.22,1.22,0,0,0-.5-.48,2,2,0,0,0-1.06-.33l3-3.76A41.26,41.26,0,0,0,114,391.4a4.22,4.22,0,0,0,1.91-1.63,3.91,3.91,0,0,0,.59-2,1.46,1.46,0,0,0,.17-1.4,1.45,1.45,0,0,0-1.92-.74l-.13.06a8.44,8.44,0,0,0-.7.52.89.89,0,0,0-.51,0,5.25,5.25,0,0,0-1.7.86l-.55.1a33,33,0,0,0-3.39.87.89.89,0,0,0-.49-.48,1.29,1.29,0,0,0-1,.24,4,4,0,0,0-1.15.93l-.47.1a.79.79,0,0,0-.4.05l-.24.1-2.66.64a1.12,1.12,0,0,0-1.18-1.05h-.12l-.35-.52a1.14,1.14,0,0,0-.64-1c-.77-1.16-1.54-2.32-2.28-3.49a1.14,1.14,0,0,0-.81-1.31,1.08,1.08,0,0,1-.31-1.17,2.14,2.14,0,0,0,.2-.4,1.72,1.72,0,0,0-.33-1.42,1.06,1.06,0,0,0-.59-.7,1.25,1.25,0,0,0,0-.69,1.43,1.43,0,0,0-1.45-1,1.28,1.28,0,0,0-1.29,1.28.86.86,0,0,0,0,.16,1.46,1.46,0,0,0,.05.2c-.93,1.25-1.06,2.51-.52,3a1.22,1.22,0,0,0,.84.28c-.07.52-.13,1.05-.19,1.57a.94.94,0,0,0-.56.16l-.1.07a1.05,1.05,0,0,0-.27.2l0,0a1.7,1.7,0,0,0-.22.24h0a1.06,1.06,0,0,0,0,1.11,1.08,1.08,0,0,0,.16.2,1.13,1.13,0,0,0,.27.34c-.06.12-.12.24-.17.37a4.77,4.77,0,0,0,0,3.43c-.16.79-.33,1.58-.53,2.37a.7.7,0,0,0-.28.31.36.36,0,0,0,0,.1,6,6,0,0,0-4,1l-1.91.43-5.6,1.25c-.78.18-1.57.38-2.35.59a.57.57,0,0,0-.4.71.55.55,0,0,0,.26.35l1,.56a1.35,1.35,0,0,0-.05.53,2.18,2.18,0,0,0,.24.69,2,2,0,0,0,.71.69,1.62,1.62,0,0,0,.34.86,2,2,0,0,0,2.37.47,1.76,1.76,0,0,0,.5-.4.36.36,0,0,0-.06.2c.06.59,2.24.83,3,.91l.52.28a4.87,4.87,0,0,0,1.27.94,5.31,5.31,0,0,0,1.27.44l.4.21c-.12.2-.27.47-.43.79a8.89,8.89,0,0,0-.49,1.2,2.68,2.68,0,0,0-.25,1,1.54,1.54,0,0,0,.4.9.56.56,0,0,1-.09.17.2.2,0,0,0,.11.27.2.2,0,0,0,.25-.07l.17-.28a1.7,1.7,0,0,0,.39,0c-.16,1.14-.31,2.28-.46,3.42-.12.18-.3.42-.68.88a4,4,0,0,0-1.2,2,1,1,0,0,0,.3.83,5.42,5.42,0,0,0-.8,2.27,2.45,2.45,0,0,0,.21,1.66c.38.6,1.18,1.07,1.68.87a.64.64,0,0,0,.2-.16.58.58,0,0,0,.64-.13c2-2.08,3.72-4.38,5.56-6.57,1-1.18,2-2.34,3.06-3.47a1.24,1.24,0,0,0,1.18-.28q1-.86,2-1.68a7.27,7.27,0,0,1,1.14.27.53.53,0,0,0,0,.28l0,.05c.07.34-.29.53-.29.73s.86.76,1.71.65a2.54,2.54,0,0,0,1.4-.73l.14,0a1.52,1.52,0,0,0,.76.92,1.63,1.63,0,0,0,1.4,0l.43.19a.33.33,0,0,0,0,.17c0,.4.7.74,1.28.7a1.24,1.24,0,0,0,.43-.11,11.2,11.2,0,0,0,3.4,2.19,4.75,4.75,0,0,1,2.5,1.56,2.33,2.33,0,0,0,.43.51,1.67,1.67,0,0,0,2.35-.09,1.3,1.3,0,0,0,.18-.23,1.57,1.57,0,0,0-.58-2.14,1.8,1.8,0,0,0-.38-.16M110,408.65l.29-.28a3.31,3.31,0,0,1,.79-.53l0,0a3.51,3.51,0,0,0-.8.92l-.3-.14m-10.48-8.13c-.67.55-1.34,1.11-2,1.69v0l1.73-1.78c.6-.52,1.22-1,1.85-1.52,1.47-1.16,3-2.25,4.58-3.28.5-.33,1-.64,1.51-1l0,0-1.62,1.47a44.36,44.36,0,0,0-6.08,4.37m2.76.66-.55.47a4.11,4.11,0,0,0,.24-.39l.31-.08m-11.87,6.57a4.34,4.34,0,0,1,.72-1.16,5.1,5.1,0,0,0,.47-.46c.3-.35.42-.63.71-.69a.49.49,0,0,1,.24,0,1.4,1.4,0,0,1,.24-.47,1.57,1.57,0,0,1,.71-.46,12.78,12.78,0,0,0,1.9-.92l-2.62,2.08c-.91.75-1.7,1.46-2.37,2.08m1.23,2.44-.52.4-1.06.81a9.19,9.19,0,0,0,.6-.93.87.87,0,0,0,.59-.37.59.59,0,0,1,.23,0Zm-9.32-12.63a5.12,5.12,0,0,1-.69.3,9.27,9.27,0,0,1,1.42-1.38c.36-.28.68-.48.94-.65l.67-.15a7.1,7.1,0,0,1-2.34,1.88M93.91,389c.35-.16.75-.47,1.78-1.06l.1,0c-.87.87-1.54,1.54-2.06,2,.06-.31.13-.62.19-.93m12.4,4.23.91-1.05.27-.1a2.93,2.93,0,0,0,1.44-1.52h0l0,0c.58.34,1.56-.24,2.06-.58l-4.76,3.22m-13.49,6.49a2,2,0,0,0-1,.76c-.27.43-.42.38-.49.35h0a4.45,4.45,0,0,0,.86-.82c.17-.17.35-.36.52-.56l0-.05v.11a.75.75,0,0,0,0,.21m-.1-4a1.62,1.62,0,0,1-1.16.37,3.33,3.33,0,0,0,.63-.49A21.16,21.16,0,0,1,97,392.27c.64-.32,1.28-.65,1.91-1l-.22.16c-1,.74-1.34,1-1.84,1.34a10.91,10.91,0,0,1-1.19.7,1.26,1.26,0,0,1-.39.53c-.38.3-.82.25-1,.62a.62.62,0,0,0-.07.19c-.1.28-.42.64-1.43,1M95.17,385s-.12.26,0,.47.21.15.23.23c.06.25-1.25.9-1.42.69s1.07-1.47,1.19-1.39m-.48-.69s0,.18,0,.23c-.08.32-.42.5-.47.47s.37-.74.47-.7m1.63,5.87a2.78,2.78,0,0,1,1.94-.47,2.92,2.92,0,0,1-.56.21l-.93.59c-.72.54-1.51,1.1-2.36,1.65-.63.41-1.25.78-1.84,1.12A7.14,7.14,0,0,0,94,391.87a6.54,6.54,0,0,0,.48-.69,1.24,1.24,0,0,0,.47,0c.65-.11.83-.63,1.38-1m2.11,4.13-.29.27-1.7,1.58a1,1,0,0,0-.3-.11c.75-.6,1.52-1.18,2.29-1.74M93.21,399a6.38,6.38,0,0,1,1.2-.88,3.72,3.72,0,0,1,.87-.23,3.7,3.7,0,0,1-.6.44c-.27.15-.54.28-.8.41s-.56.27-.84.44l.18-.18m3.65-.16a3.54,3.54,0,0,0,1.62-1.18,3.48,3.48,0,0,0,.47-.92c.32-.15.65-.31,1-.5a14.28,14.28,0,0,0,3.21-2.41l-3.72,3.64a2.84,2.84,0,0,1-.6.6,7.69,7.69,0,0,0-.82.51,2.05,2.05,0,0,0-.47.46c-.26.35-.25.58-.48.69a.64.64,0,0,1-.47,0q-.23.36-.48.69a4.91,4.91,0,0,1-1.42,1.38c-.06-.05.38-.71,2.18-3m-5.68-5.24.32.32-1.78,1.73a8.07,8.07,0,0,1-1.44,1.1,8.87,8.87,0,0,1-1.42.69,19.77,19.77,0,0,0,4.32-3.84m.6,16.33a4.86,4.86,0,0,1,.5-1,1.72,1.72,0,0,1,1.06-.7l.36-.07v-.76a3.45,3.45,0,0,0,1.9-1.36,11.8,11.8,0,0,1,1.3-1.25,3.08,3.08,0,0,0-.07.68c-1.6,1.55-3.32,3.06-5,4.43Zm8.66-6.93-.54.47a5.24,5.24,0,0,1,1.14-1.21,2.28,2.28,0,0,0-.6.74m8,1.33a18.36,18.36,0,0,1-1.9,1.61c-.44.33-.82.58-1.15.8l-.19-.08c.78-.63,1.82-1.39,3.24-2.34m2.06,2.79-.31.14.21-.28.1.14m-23.61-7.39c.62-.44,1.1-.87,1.43-1.15.58-.51,1.13-1.05,1.66-1.61.88-.18,1.13-.11,1.18,0,.21.44-2.75,1.9-4.49,3.3l-.3-.16.52-.38m16.73,4.23c.63-.42,1.27-.84,1.91-1.24a4.24,4.24,0,0,1-2,2.3,5.75,5.75,0,0,0-.91.51l-.84-.21c.61-.47,1.24-.93,1.88-1.37"/></g></g></g><rect class="cls-1" width="493.51" height="493.51"/></g></g></svg>