<svg xmlns="http://www.w3.org/2000/svg" viewBox="0 0 503 677.62"><defs><style>.cls-1{fill:#fec671;opacity:0.1;}.cls-2{fill:#44c7d2;}</style></defs><g id="Layer_2" data-name="Layer 2"><g id="Layer_1-2" data-name="Layer 1"><path class="cls-1" d="M503,442.87V89a260.62,260.62,0,0,0-26.5-1.35A256.52,256.52,0,0,0,230.07,272.8q-1.66,5.73-3.06,11.58a255.06,255.06,0,0,0-5.87,35.54q-.7,7.47-1,15.05c-.12,3.06-.17,6.13-.17,9.22a255.34,255.34,0,0,0,28,116.63q2,3.92,4.14,7.75A255,255,0,0,0,274.25,502c.39.5.78,1,1.18,1.51A256.8,256.8,0,0,0,476.5,600.69a260.62,260.62,0,0,0,26.5-1.35V442.87Z"/><path id="Path_19" data-name="Path 19" class="cls-2" d="M492.74,243.54A38.13,38.13,0,0,0,503,236.92V177.56q-2.76.85-5.52,1.74c-1-2.06-3.34-6.17-7.82-7.72-5.07-1.76-9.91.76-15.64,3.85a62.84,62.84,0,0,0-18.17,14.86c-2.48.59-5,1.13-7.45,1.72a12.57,12.57,0,0,0-6.28.78c-1.33.52-2.62,1.09-3.93,1.63q-21.09,5-42.16,10.2c-.25-9.92-9.45-18.18-20.64-16.59-1.82-2.84-3.62-5.67-5.46-8.5-.43-6.76-4.27-13.29-10.22-15.86q-11.29-17.41-22.53-34.88-6.82-10.69-13.56-21.43c2.16-9.19-4.06-18.33-12.9-21a18.15,18.15,0,0,1-5.37-9,17.75,17.75,0,0,1,.46-9.9A21.35,21.35,0,0,0,309,61c3.23-11-3.82-21-5.2-22.84a17.29,17.29,0,0,0-9.28-11.29,21.53,21.53,0,0,0-.56-11c-3-9.56-12.69-16.64-23-15.83-12.39,1-22.14,10.27-20.37,23.19a19.33,19.33,0,0,0,.75,3.2c-14.75,20.15-16.73,40.42-8.11,48.69,1.7,1.65,5.44,4.37,13.19,4.57q-1.52,12.66-3,25.29a14.77,14.77,0,0,0-8.79,2.52L243,108.61a23.58,23.58,0,0,0-4.38,3.25c-.2.18-.4.34-.58.53a30.9,30.9,0,0,0-3.43,3.89l.29.16a17.16,17.16,0,0,0-.29,17.9,17.88,17.88,0,0,0,2.5,3.18,16.31,16.31,0,0,0,4.32,5.4c-1,1.92-2,3.9-2.81,5.91-8.72,21-4.22,42.13.21,55.22-2.46,12.76-5.22,25.49-8.42,38.13a10.59,10.59,0,0,0-4.33,5.06,8.05,8.05,0,0,0-.43,1.62c-15.53-2.6-42.63,1.77-62.47,16.23Q148,268.62,132.81,272q-44.39,10-88.75,20-18.65,4.49-37.17,9.46c-7.92,2.16-9.46,13.14-2.26,17.22l15.63,8.88a22.44,22.44,0,0,0-.79,8.55,34,34,0,0,0,3.76,11.11,31.3,31.3,0,0,0,11.26,11.11,26.64,26.64,0,0,0,5.33,13.79c8.59,11,25.95,13.69,37.63,7.57a27.08,27.08,0,0,0,8-6.51,4.94,4.94,0,0,0-.91,3.18c.89,9.48,35.52,13.45,48.19,14.67l8.1,4.52a76.5,76.5,0,0,0,40.39,22.16c2.1,1.14,4.2,2.32,6.32,3.46-1.93,3.2-4.37,7.47-6.9,12.66a162.23,162.23,0,0,0-7.83,19.29c-2.76,7.91-4.13,11.94-3.9,15.42.43,6.61,3.87,11.61,6.29,14.47a14.13,14.13,0,0,1-1.39,2.81c-1.86,3.7,3.59,6.95,5.67,3.28a47.25,47.25,0,0,1,2.7-4.49,27.27,27.27,0,0,0,6.19-.11q-3.83,27.53-7.26,55.09c-2,2.84-4.75,6.66-10.76,14.07-7.92,9.79-17.89,19.43-18.91,32.52-.46,5.86,1.47,10.35,4.73,13.48a86.11,86.11,0,0,0-12.76,36.45c-1,9.68-1.8,18.34,3.43,26.78,6,9.69,18.68,17.1,26.62,14a13,13,0,0,0,3.25-2.61,9.16,9.16,0,0,0,10.16-2c31.24-33.55,58.86-70.46,88-105.7,9.28-11.23,18.66-22.39,28.25-33.36q9.94-11.38,20.22-22.46a19.71,19.71,0,0,0,18.8-4.64c10.31-9.12,20.74-18.13,31.34-26.9a108.13,108.13,0,0,1,18.12,4.24,8.14,8.14,0,0,0-.3,4.53c.1.38.15.46.25.87,1.18,5.45-4.63,8.45-4.61,11.78.05,5,13.56,12.12,27.07,10.38,11.45-1.5,19.16-8.85,22.19-11.73.73.29,1.45.55,2.18.85a24.44,24.44,0,0,0,12.15,14.73c10.74,5.39,21.13.28,22.14-.24l6.8,3a6.57,6.57,0,0,0-.33,2.71c.6,6.38,11.15,11.95,20.32,11.26A20.15,20.15,0,0,0,503,531V444.26a302.31,302.31,0,0,1-25.13,21.21c-7,5.25-13.08,9.4-18.27,12.92-1-.46-2-.91-3-1.35C468,467.69,483,456.51,503,442.87V365.12A32.38,32.38,0,0,0,492.41,363L503,349.49V242l-29,20,14.53-17A35.12,35.12,0,0,0,492.74,243.54ZM93.94,331.71h0c-4.56,2.29-8.43,3.9-10.93,4.87a144.84,144.84,0,0,1,22.54-22.22c5.71-4.52,10.74-7.82,14.85-10.49,3.57-.79,7.13-1.57,10.69-2.37C122.2,311.87,112,322.59,93.94,331.71Zm229.77-77a174.45,174.45,0,0,1-18.78,11.11,20.15,20.15,0,0,1-6.15,8.58c-6.08,4.88-13,4-16.39,9.94a13.71,13.71,0,0,0-1.15,3c-1.49,4.59-6.62,10.35-22.66,15.47-5.87,4.62-12,6.59-18.25,6a42.37,42.37,0,0,0,9.85-7.88c19.2-18.9,45.52-37.76,75.9-54.36q15.26-7.57,30.4-16.1c-.83.59-2.05,1.48-3.54,2.56C336.52,244.9,331.74,249.17,323.71,254.66Zm25.4,24.22c-1.54,1.44-3.08,2.86-4.6,4.29l-27,25.54a17.48,17.48,0,0,0-4.8-1.79C324.68,297.32,336.76,287.92,349.11,278.88Zm-97,189.69c-11.31,9.65-21.26,18.77-29.9,27.07,3.64-8,7.5-14.95,11.34-18.77,1.83-1.81,4.12-3.36,7.51-7.41,2.94-3.51,4.79-6.58,6.91-8.64a8.76,8.76,0,0,1,4.36-2.47,9.47,9.47,0,0,1,3.75,0,20.88,20.88,0,0,1,3.76-7.41c3.86-4.82,9-6.57,11.27-7.4,6.67-2.42,16-6.79,30.05-14.82q-20.67,16.69-41.32,33.34Q255.88,465.36,252.13,468.57Zm8-102.18c-5.59,2-10.39,5.86-15.19,12.19-4.22,6.88-6.6,6.1-7.72,5.71h0a76,76,0,0,0,13.7-13.3c2.73-2.69,5.45-5.8,8.13-8.9l.81-.93V363A15.93,15.93,0,0,0,260.17,366.39ZM277,349.84c-4.43,2.19-8.88,4.36-13.29,7,.91-1,1.84-2,2.77-2.89a104,104,0,0,1,18.89-14.11,63.75,63.75,0,0,1,13.77-3.66,51.86,51.86,0,0,1-9.41,7C285.49,345.68,281.24,347.77,277,349.84Zm.5-155.89c5.54-2.53,11.85-7.56,28.18-16.94.25-.15.79-.42,1.5-.78C293.5,190.31,282.78,201,274.52,209,275.56,204,276.59,199,277.52,194Zm68.93,10.9c.1.36-4.48,2-8.93,3.43l-14.63,9.46c-11.43,8.76-23.9,17.69-37.43,26.58-10,6.54-19.74,12.55-29.2,18.05a115.44,115.44,0,0,0,22.53-22.23A111,111,0,0,0,286.31,229a22.54,22.54,0,0,0,7.51,0c10.19-1.8,13.12-10.11,21.9-16.54C328.84,202.89,346.2,204,346.45,204.85Zm-56.54-86.78h0c.7.29.21,2.8,0,3.7-1.28,5.07-6.72,8.11-7.52,7.41C281.22,128.16,288.32,117.42,289.91,118.07Zm7.51,11.12c.75.51-1.75,4,0,7.41,1.24,2.42,3.48,2.42,3.76,3.7.89,4.15-19.88,14.52-22.54,11.11C275.69,147.64,295.52,127.88,297.42,129.19ZM230.07,272.8a65.13,65.13,0,0,0,4.3-5.83c1.69,1.87,3.43,3.6,5,5.12L227,284.38,211.22,300a134.78,134.78,0,0,1-45.28,28.7C201.44,301.93,220.62,284.37,230.07,272.8ZM162.69,374.07,158,371.48q4-2.88,8.24-6h0a291,291,0,0,0,22.53-18.52A361.22,361.22,0,0,0,215.09,321c2.27-.47,4.28-.83,6-1.09,9.21-1.41,12.06-.34,12.74,1.09,1.25,2.68-4.53,7.63-13.71,14C204.81,345.56,179.94,360,162.69,374.07Zm70.78,167.24c-5.45,4.24-11.06,8.6-16.72,13a173.11,173.11,0,0,0,9.5-15,14,14,0,0,0,9.32-6,14,14,0,0,1,3.61.78l2.46.81C238.91,537.07,236.2,539.19,233.47,541.31ZM324,458.6c-15.56,15.27-31.92,30.37-48.55,44.86C265,512.53,254.5,521.36,244,529.85l.05-.11a73.08,73.08,0,0,1,7.81-15.49c4.68-6.18,10.36-9.95,16.91-11.24l5.48-1.06.15,0V489.67c11.76-3.17,21.94-10.64,30.08-22A190.81,190.81,0,0,1,325,447.6,55.56,55.56,0,0,0,324,458.6Zm3.49-92.83c-2.58,1.26-5.49.67-7.51,0a120.93,120.93,0,0,1-7.52,11.11c-9.35,12.25-21.4,23.17-22.53,22.22s5.94-11.51,34.52-47.76A55.15,55.15,0,0,0,350,332.43a51.62,51.62,0,0,0,7.52-14.81c5.08-2.35,10.29-5,15.59-7.95a228.42,228.42,0,0,0,47.68-35.76l-55.71,55.52a45.09,45.09,0,0,1-9.6,9.56c-5,3.66-7.51,3.84-13,8.26a36.68,36.68,0,0,0-7.52,7.41C330.91,360.26,331.05,364,327.47,365.77Zm53.84,52.41c-2.88,2.51-5.78,5-8.71,7.49a87.35,87.35,0,0,1,18.12-19.43C386.12,410.35,383,414.25,381.31,418.18Zm47.88,32.47a88.84,88.84,0,0,0-14.48,8.23q-6.68-2-13.32-3.5c9.78-7.58,19.73-14.93,29.93-21.94,10-6.84,20.06-13.53,30.29-20C451,436.82,438.64,446.33,429.19,450.65Zm-27.5-53.27c1.36-2,2.6-4.05,3.79-6.19,1.7-.41,3.36-.88,5-1.39Q406.06,393.6,401.69,397.38ZM488.14,284.9a6,6,0,0,0,.58.41q-12.8,11.9-25.78,23.58c-34.59,19.79-66.26,45.77-96.3,70.44Q350.53,392.58,335,406.45l-.08-.28q13.72-14.32,27.42-28.64Q376.73,365,391.66,353c23.35-18.61,47.76-36.07,72.62-52.68C472.13,295,480.11,289.92,488.14,284.9Z"/></g></g></svg>