<svg xmlns="http://www.w3.org/2000/svg" xmlns:xlink="http://www.w3.org/1999/xlink" viewBox="0 0 493.51 493.51"><defs><style>.cls-1{fill:none;}.cls-2{clip-path:url(#clip-path);}.cls-3{fill:#44c7d2;}.cls-4{fill:#42c9d4;}.cls-5{clip-path:url(#clip-path-2);}.cls-6{fill:#c867a9;}</style><clipPath id="clip-path"><rect class="cls-1" x="42.54" y="56.91" width="97.83" height="100.51"/></clipPath><clipPath id="clip-path-2"><rect class="cls-1" x="333.3" y="375.92" width="40.76" height="41.87"/></clipPath></defs><g id="Layer_2" data-name="Layer 2"><g id="Layer_1-2" data-name="Layer 1"><g id="Group_835" data-name="Group 835"><g class="cls-2"><g id="Group_45" data-name="Group 45"><path id="Path_33" data-name="Path 33" class="cls-3" d="M137.52,139.33l-.51-.1a2.86,2.86,0,0,1-.79-.59c-.45-.58-.44-1.45-1.09-2.07a3.7,3.7,0,0,0-1.73-.93,1.83,1.83,0,0,0,.24-.46c.82-2.17-2.4-5.22-5.68-8.27a63.35,63.35,0,0,0-5-4.15,6.73,6.73,0,0,0-1.51-3.28,7,7,0,0,0-2.15-1.67c.09-.28.23-.69.38-1.18,1-3.1.72-3.73.59-4a2.94,2.94,0,0,0-1.17-1.15,5.08,5.08,0,0,0-2.53-.78l7.11-9a98.15,98.15,0,0,0,8.49-10.39,9.92,9.92,0,0,0,4.58-3.89,9.45,9.45,0,0,0,1.39-4.65,3.57,3.57,0,0,0,.41-3.36A3.48,3.48,0,0,0,134,77.71l-.29.15A14.36,14.36,0,0,0,132,79.09a2.3,2.3,0,0,0-1.22,0,13,13,0,0,0-4.07,2l-1.3.25a74.8,74.8,0,0,0-8.08,2.08,2.16,2.16,0,0,0-1.18-1.14,3,3,0,0,0-2.35.57,9.23,9.23,0,0,0-2.73,2.2l-1.12.25a1.93,1.93,0,0,0-.95.12c-.2.07-.39.16-.59.24-2.11.49-4.23,1-6.34,1.51a2.66,2.66,0,0,0-2.81-2.49,1.43,1.43,0,0,0-.29,0l-.82-1.26a2.72,2.72,0,0,0-1.54-2.35c-1.83-2.76-3.65-5.53-5.43-8.33a2.71,2.71,0,0,0-1.94-3.12,2.63,2.63,0,0,1-.81-1.33,2.54,2.54,0,0,1,.07-1.47,3.07,3.07,0,0,0,.47-1,4.06,4.06,0,0,0-.77-3.38,2.57,2.57,0,0,0-1.4-1.67,3.22,3.22,0,0,0-.09-1.63,3.42,3.42,0,0,0-3.45-2.34A3.07,3.07,0,0,0,80.21,60a2.31,2.31,0,0,0,0,.37,2.77,2.77,0,0,0,.11.48c-2.22,3-2.52,6-1.22,7.21a2.82,2.82,0,0,0,2,.68l-.45,3.75a2.26,2.26,0,0,0-1.33.37l-.24.16a4,4,0,0,0-.66.48l-.09.08a4,4,0,0,0-.51.58l0,0a2.49,2.49,0,0,0,0,2.65,2.46,2.46,0,0,0,.37.48,2.52,2.52,0,0,0,.65.8q-.22.42-.42.87a11.53,11.53,0,0,0,0,8.18c-.37,1.89-.79,3.78-1.27,5.65a1.63,1.63,0,0,0-.65.75,1.05,1.05,0,0,0-.06.24,14,14,0,0,0-9.4,2.41l-4.56,1-13.35,3q-2.81.66-5.59,1.4a1.4,1.4,0,0,0-1,1.7,1.38,1.38,0,0,0,.66.85l2.35,1.32a3.2,3.2,0,0,0-.12,1.27,4.86,4.86,0,0,0,.57,1.64,4.56,4.56,0,0,0,1.7,1.65,3.83,3.83,0,0,0,.8,2,4.79,4.79,0,0,0,5.66,1.13,4.31,4.31,0,0,0,1.2-1,.72.72,0,0,0-.14.47c.13,1.4,5.34,2,7.25,2.18l1.22.67a11.34,11.34,0,0,0,3,2.24,12.07,12.07,0,0,0,3,1l1,.51c-.29.48-.65,1.11-1,1.88a22.33,22.33,0,0,0-1.18,2.86,6.25,6.25,0,0,0-.59,2.28,3.75,3.75,0,0,0,.94,2.15,2.22,2.22,0,0,1-.2.41.49.49,0,0,0,.85.49,6.68,6.68,0,0,1,.41-.67,4.13,4.13,0,0,0,.93,0c-.39,2.72-.75,5.44-1.1,8.16-.3.42-.71,1-1.61,2.09-1.2,1.45-2.7,2.88-2.85,4.82a2.38,2.38,0,0,0,.71,2,12.7,12.7,0,0,0-1.92,5.4,5.78,5.78,0,0,0,.52,4c.9,1.44,2.81,2.54,4,2.07a1.84,1.84,0,0,0,.49-.38,1.4,1.4,0,0,0,1.53-.3c4.7-5,8.85-10.44,13.24-15.67,2.36-2.81,4.76-5.6,7.29-8.27A3,3,0,0,0,94,131.9c1.55-1.35,3.11-2.68,4.71-4a16.87,16.87,0,0,1,2.73.62,1.21,1.21,0,0,0,0,.68l0,.12c.18.81-.7,1.26-.7,1.75,0,.75,2.05,1.8,4.08,1.54a6,6,0,0,0,3.33-1.74l.33.13a3.66,3.66,0,0,0,1.83,2.18,3.92,3.92,0,0,0,3.33,0l1,.45a1.07,1.07,0,0,0,0,.4c.09.94,1.68,1.77,3.06,1.67a3.39,3.39,0,0,0,1-.26,26.19,26.19,0,0,0,8.09,5.2c1.78.7,4.42,1.44,6,3.73a6,6,0,0,0,1,1.21,4,4,0,0,0,5.61-.21,3.57,3.57,0,0,0,.42-.54,3.75,3.75,0,0,0-1.38-5.11,3.62,3.62,0,0,0-.91-.37m-14.85-6.84c.31-.28.36-.37.68-.66a7.87,7.87,0,0,1,1.89-1.28l0,.07a8.57,8.57,0,0,0-1.9,2.21l-.72-.34m-25-19.37q-2.43,2-4.75,4l0,0,4.13-4.24q2.16-1.86,4.41-3.64c3.51-2.76,7.18-5.34,10.92-7.81,1.18-.77,2.38-1.53,3.58-2.28a.24.24,0,0,0,.09.06c-1.28,1.18-2.57,2.34-3.88,3.5a107.44,107.44,0,0,0-14.48,10.44m6.59,1.55L103,115.79c.2-.3.39-.6.57-.92l.75-.2M76,130.35a10.18,10.18,0,0,1,1.7-2.78,9.79,9.79,0,0,0,1.13-1.1c.71-.83,1-1.5,1.7-1.65a1.82,1.82,0,0,1,.57,0,3.1,3.1,0,0,1,.56-1.1,3.64,3.64,0,0,1,1.7-1.1,29,29,0,0,0,4.52-2.2l-6.21,4.94c-2.19,1.79-4.07,3.48-5.66,5m2.92,5.82-1.23,1L75.15,139a26.16,26.16,0,0,0,1.43-2.22,2.12,2.12,0,0,0,1.4-.9,2.57,2.57,0,0,1,.55.12Zm-22.23-30.1c-.69.34-1.27.58-1.64.72a21.54,21.54,0,0,1,3.39-3.29,26.21,26.21,0,0,1,2.23-1.55l1.61-.35a17.09,17.09,0,0,1-5.59,4.47M84.28,85.65c.84-.38,1.79-1.12,4.24-2.51l.23-.12c-2.06,2.09-3.67,3.67-4.92,4.85q.24-1.11.45-2.22m29.56,10.09L116,93.22a4.83,4.83,0,0,0,.64-.22,6.93,6.93,0,0,0,3.43-3.62h0l.11.07c1.39.82,3.72-.58,4.91-1.38l-11.3,7.68M81.67,111.2A5,5,0,0,0,79.39,113c-.64,1-1,.9-1.16.84h0a11.64,11.64,0,0,0,2.06-2c.41-.4.82-.86,1.22-1.32l.12-.14v.28a2.83,2.83,0,0,0,.05.5m-.24-9.43a3.78,3.78,0,0,1-2.75.89,6.47,6.47,0,0,0,1.48-1.17,52.35,52.35,0,0,1,11.42-8c1.53-.75,3.06-1.55,4.57-2.39l-.53.38c-2.47,1.77-3.19,2.4-4.4,3.21a25.77,25.77,0,0,1-2.83,1.65,3,3,0,0,1-.92,1.27c-.92.72-2,.59-2.47,1.47a2.75,2.75,0,0,0-.17.45c-.22.68-1,1.54-3.41,2.3m5.84-25.73c.12.08-.26.6,0,1.1s.53.36.57.55c.13.61-3,2.15-3.39,1.65s2.54-3.49,2.82-3.3m-1.13-1.64c.1,0,0,.41,0,.55-.19.75-1,1.2-1.13,1.1s.9-1.75,1.13-1.65m3.9,14a6.58,6.58,0,0,1,4.62-1.13,6.47,6.47,0,0,1-1.35.51l-2.2,1.4c-1.72,1.3-3.59,2.62-5.63,3.94-1.5,1-3,1.86-4.39,2.67a16.78,16.78,0,0,0,3.39-3.29,16.61,16.61,0,0,0,1.13-1.65,3.07,3.07,0,0,0,1.13,0c1.53-.26,2-1.5,3.3-2.45m5,9.84-.69.64-4.06,3.78a3,3,0,0,0-.72-.27c1.8-1.42,3.61-2.81,5.47-4.15M82.63,109.35a15.75,15.75,0,0,1,2.84-2.09,9.28,9.28,0,0,1,2.07-.54,8.43,8.43,0,0,1-1.42,1c-.64.38-1.28.69-1.91,1s-1.34.65-2,1a5.6,5.6,0,0,1,.41-.43m8.72-.38a8.32,8.32,0,0,0,3.84-2.8,7.41,7.41,0,0,0,1.13-2.2c.77-.35,1.55-.74,2.35-1.18A34.42,34.42,0,0,0,106.3,97l-8.85,8.7A6.64,6.64,0,0,1,96,107.13c-.76.55-1.13.57-2,1.23a5.88,5.88,0,0,0-1.13,1.1c-.61.83-.59,1.39-1.13,1.64a1.47,1.47,0,0,1-1.13,0,17.07,17.07,0,0,1-1.12,1.65c-1.41,1.82-3.22,3.44-3.39,3.3s.89-1.71,5.19-7.08M77.79,96.47c.26.28.52.53.76.76l-4.24,4.14a20.08,20.08,0,0,1-6.81,4.25c6.33-4.7,9.21-7.49,10.29-9.15m1.46,38.94a10.34,10.34,0,0,1,1.18-2.29A4.14,4.14,0,0,1,83,131.45l.85-.16v-1.82a8.23,8.23,0,0,0,4.52-3.26,29,29,0,0,1,3.09-3,8.19,8.19,0,0,0-.16,1.63c-3.8,3.68-7.92,7.29-12,10.56ZM99.9,118.87,98.59,120a13,13,0,0,1,2.72-2.88,5.5,5.5,0,0,0-1.41,1.77m19,3.17a47,47,0,0,1-4.52,3.84c-1,.78-2,1.39-2.75,1.92l-.45-.2c1.86-1.5,4.33-3.31,7.72-5.56m4.9,6.63-.75.34c.17-.22.33-.45.49-.68l.25.34M67.55,111.06C69,110,70.17,109,70.94,108.32a55.06,55.06,0,0,0,4-3.84c2.12-.43,2.7-.26,2.83,0,.5,1.06-6.57,4.53-10.71,7.86l-.7-.39,1.24-.89m39.87,10.08c1.5-1,3-2,4.55-3-1.6,3.46-3.45,4.87-4.87,5.51a12.63,12.63,0,0,0-2.18,1.22c-.67-.2-1.33-.38-2-.52q2.2-1.69,4.5-3.25"/></g></g></g><path id="Path_545" data-name="Path 545" class="cls-4" d="M242.2,97.52c14.33,1,28.88,1.11,42.42,4.58a171.32,171.32,0,0,1,34,12.71c18.21,9.45,33.68,25.27,44.49,42.51,16.56,26.57,25.69,56,25.34,89.9-.28,26.16-8,52.08-20.18,75.21-23.77,45.24-72.83,71.67-119.51,71.2-80.94-1-142.18-60-146.67-145.17C99,187.1,134,134.19,182.27,109.51A113.1,113.1,0,0,1,242.2,97.52ZM247,94.14c-4.76-.09-9.31.24-14,.16a119.42,119.42,0,0,0-57.61,13.9C124.66,134.63,91.27,191.85,97.08,256c7.61,87.92,81.51,149.39,165.76,139.86,46.8-5.29,86.22-30.65,109.36-70.63,14.15-24.36,22.24-51.9,22.24-80.51.74-32.57-8.5-61.86-22.31-86.06a114.5,114.5,0,0,0-31.5-35.88c-21.87-16.22-46.37-26.18-74.2-28.56-5.93-.51-13.41,0-19.44-.1Z"/><g id="Group_836" data-name="Group 836"><g class="cls-5"><g id="Group_45-2" data-name="Group 45-2"><path id="Path_33-2" data-name="Path 33-2" class="cls-6" d="M372.87,410.25l-.21,0a1.31,1.31,0,0,1-.33-.25c-.19-.24-.18-.6-.45-.86a1.64,1.64,0,0,0-.72-.39,1,1,0,0,0,.1-.18c.34-.9-1-2.18-2.37-3.45a26.33,26.33,0,0,0-2.07-1.73,2.7,2.7,0,0,0-.63-1.37,3,3,0,0,0-.9-.7c0-.11.1-.28.16-.49.4-1.29.3-1.55.25-1.67a1.17,1.17,0,0,0-.49-.47,2.06,2.06,0,0,0-1-.33l3-3.73a40.65,40.65,0,0,0,3.54-4.32,4.16,4.16,0,0,0,1.9-1.62,4,4,0,0,0,.58-1.94,1.49,1.49,0,0,0,.18-1.4,1.45,1.45,0,0,0-1.92-.73l-.12.06c-.24.16-.48.33-.7.51a1.06,1.06,0,0,0-.5,0,5.68,5.68,0,0,0-1.7.86l-.54.1a32.62,32.62,0,0,0-3.37.86.9.9,0,0,0-.49-.47,1.24,1.24,0,0,0-1,.24,4,4,0,0,0-1.14.91l-.46.11a.78.78,0,0,0-.4.05l-.24.1q-1.32.3-2.64.63a1.11,1.11,0,0,0-1.18-1h-.11l-.35-.52a1.12,1.12,0,0,0-.64-1c-.76-1.15-1.52-2.31-2.26-3.48a1.13,1.13,0,0,0-.81-1.3,1.08,1.08,0,0,1-.33-.55,1.05,1.05,0,0,1,0-.61,2.14,2.14,0,0,0,.2-.4,1.73,1.73,0,0,0-.33-1.41,1,1,0,0,0-.58-.7,1.31,1.31,0,0,0,0-.68,1.44,1.44,0,0,0-1.44-1,1.28,1.28,0,0,0-1.28,1.28.76.76,0,0,0,0,.15,1.18,1.18,0,0,0,0,.2c-.92,1.25-1,2.5-.5,3a1.13,1.13,0,0,0,.82.28c-.06.52-.12,1-.19,1.56a.93.93,0,0,0-.55.16l-.1.06a1.89,1.89,0,0,0-.27.2s0,0,0,0a1.21,1.21,0,0,0-.21.24h0a1,1,0,0,0,0,1.11,1,1,0,0,0,.16.2.86.86,0,0,0,.27.33,2.53,2.53,0,0,0-.18.37,4.8,4.8,0,0,0,0,3.4c-.15.79-.32,1.58-.52,2.36a.65.65,0,0,0-.28.31.36.36,0,0,0,0,.1,5.86,5.86,0,0,0-3.92,1l-1.9.43-5.56,1.23-2.33.58a.59.59,0,0,0-.41.71.61.61,0,0,0,.27.36l1,.54a1.62,1.62,0,0,0-.05.53,2.1,2.1,0,0,0,.24.69,1.9,1.9,0,0,0,.7.68,1.7,1.7,0,0,0,.34.86,2,2,0,0,0,2.36.46,1.61,1.61,0,0,0,.5-.4.25.25,0,0,0-.06.2c0,.59,2.22.83,3,.91l.51.28a4.53,4.53,0,0,0,1.27.93,5,5,0,0,0,1.26.44l.4.21a8.27,8.27,0,0,0-.43.78,9.32,9.32,0,0,0-.49,1.19,2.68,2.68,0,0,0-.25.95,1.57,1.57,0,0,0,.39.9.89.89,0,0,1-.08.17.2.2,0,0,0,.08.28.19.19,0,0,0,.27-.08h0l.17-.28a1.7,1.7,0,0,0,.39,0c-.16,1.13-.31,2.26-.45,3.4-.13.17-.3.41-.68.87a3.87,3.87,0,0,0-1.18,2,1,1,0,0,0,.3.84,5.12,5.12,0,0,0-.8,2.25,2.43,2.43,0,0,0,.21,1.65c.38.6,1.17,1.05,1.67.86a.78.78,0,0,0,.2-.16.6.6,0,0,0,.64-.12c2-2.08,3.69-4.35,5.51-6.53,1-1.17,2-2.33,3-3.45a1.24,1.24,0,0,0,1.18-.28c.64-.57,1.3-1.12,2-1.66a6.28,6.28,0,0,1,1.14.26.54.54,0,0,0,0,.28l0,0c.07.34-.29.52-.29.73s.85.75,1.7.64a2.56,2.56,0,0,0,1.39-.72l.13.05a1.54,1.54,0,0,0,.77.91,1.63,1.63,0,0,0,1.38,0l.43.19a.32.32,0,0,0,0,.17c0,.39.7.73,1.27.7a1.6,1.6,0,0,0,.43-.11,11,11,0,0,0,3.36,2.16,4.83,4.83,0,0,1,2.49,1.56,2.86,2.86,0,0,0,.42.5,1.66,1.66,0,0,0,2.34-.09,2,2,0,0,0,.18-.23,1.55,1.55,0,0,0-.58-2.12,1.4,1.4,0,0,0-.38-.16m-6.19-2.85c.14-.12.16-.16.29-.28a3.46,3.46,0,0,1,.78-.53l0,0a3.67,3.67,0,0,0-.79.92l-.3-.14m-10.4-8.07c-.67.55-1.34,1.11-2,1.68v0l1.72-1.77c.6-.51,1.21-1,1.84-1.51,1.46-1.15,3-2.23,4.55-3.26.49-.32,1-.64,1.5-.95l0,0L362.32,395a45.27,45.27,0,0,0-6,4.34M359,400l-.55.47.24-.38L359,400m-11.8,6.53a4,4,0,0,1,.71-1.15,5.1,5.1,0,0,0,.47-.46c.29-.35.41-.62.7-.69h.24a1.47,1.47,0,0,1,.23-.45,1.51,1.51,0,0,1,.71-.46,12.11,12.11,0,0,0,1.88-.92l-2.59,2.06c-.91.75-1.7,1.45-2.35,2.08m1.21,2.42-.51.4-1.05.8a9.19,9.19,0,0,0,.6-.93.89.89,0,0,0,.59-.37.79.79,0,0,1,.22.05Zm-9.25-12.55c-.29.14-.53.24-.69.3a9.7,9.7,0,0,1,1.42-1.37,8.81,8.81,0,0,1,.93-.64l.67-.15a7.13,7.13,0,0,1-2.33,1.86m11.5-8.5c.35-.16.74-.47,1.76-1.05l.1,0c-.86.87-1.53,1.53-2.05,2,.07-.3.13-.61.19-.92m12.31,4.2.91-1,.27-.1a2.85,2.85,0,0,0,1.42-1.5h0l.05,0c.58.34,1.55-.24,2-.58l-4.71,3.2m-13.4,6.44a2,2,0,0,0-1,.75c-.27.43-.42.38-.49.36h0a4.83,4.83,0,0,0,.86-.83c.17-.16.34-.35.51-.54l.05-.06v.11a1.49,1.49,0,0,0,0,.21m-.1-3.92a1.58,1.58,0,0,1-1.14.36,2.59,2.59,0,0,0,.61-.48,21.68,21.68,0,0,1,4.76-3.36c.64-.31,1.27-.64,1.9-1l-.22.16c-1,.73-1.33,1-1.83,1.33a9.32,9.32,0,0,1-1.18.69,1.27,1.27,0,0,1-.38.53c-.39.3-.82.25-1,.61a.73.73,0,0,0-.07.19c-.1.28-.42.64-1.42,1m2.44-10.72c.05,0-.11.25,0,.46s.22.15.24.23c.05.25-1.25.9-1.42.68s1.06-1.45,1.18-1.37m-.47-.69s0,.18,0,.23c-.08.32-.42.5-.47.46s.37-.73.47-.69m1.62,5.83a2.74,2.74,0,0,1,1.92-.47,2.49,2.49,0,0,1-.56.21l-.91.59c-.72.54-1.5,1.09-2.35,1.64-.62.4-1.24.77-1.83,1.11a7,7,0,0,0,1.41-1.37,6.45,6.45,0,0,0,.47-.69,1.24,1.24,0,0,0,.47,0c.64-.11.83-.62,1.38-1m2.09,4.1-.29.27L353.2,395a1.21,1.21,0,0,0-.3-.11c.75-.59,1.5-1.17,2.28-1.73M350,397.76a7.18,7.18,0,0,1,1.18-.87,4.27,4.27,0,0,1,.87-.22,3.56,3.56,0,0,1-.59.43c-.27.15-.54.28-.8.41s-.56.27-.84.43l.18-.18m3.63-.16a3.23,3.23,0,0,0,2.07-2.08c.31-.14.64-.31,1-.49a14.12,14.12,0,0,0,3.19-2.4l-3.69,3.62a2.58,2.58,0,0,1-.6.59c-.31.23-.47.24-.81.51a2.05,2.05,0,0,0-.47.46c-.26.34-.25.58-.47.68a.66.66,0,0,1-.48,0,6.45,6.45,0,0,1-.47.69,4.85,4.85,0,0,1-1.41,1.37c-.06-.05.37-.71,2.16-2.95M348,392.39c.11.12.22.23.32.32l-1.76,1.73a8.39,8.39,0,0,1-1.43,1.08,7.37,7.37,0,0,1-1.41.69A19.48,19.48,0,0,0,348,392.4m.61,16.22a4.35,4.35,0,0,1,.49-1,1.75,1.75,0,0,1,1.06-.69l.35-.07v-.76a3.36,3.36,0,0,0,1.89-1.35,10.71,10.71,0,0,1,1.28-1.24,3.82,3.82,0,0,0-.06.68c-1.59,1.53-3.3,3-5,4.4Zm8.6-6.89-.55.46a5.64,5.64,0,0,1,1.14-1.2,2.13,2.13,0,0,0-.59.74m7.93,1.32a19.13,19.13,0,0,1-1.88,1.6c-.44.32-.82.58-1.15.8l-.18-.09c.77-.62,1.8-1.37,3.21-2.31m2,2.76-.31.14a2.83,2.83,0,0,0,.2-.28l.1.14m-23.44-7.33c.61-.45,1.09-.87,1.41-1.15a20.77,20.77,0,0,0,1.65-1.6c.88-.18,1.13-.1,1.18,0,.21.44-2.74,1.89-4.46,3.28l-.29-.16.51-.37m16.61,4.2c.63-.43,1.26-.84,1.9-1.24a4.21,4.21,0,0,1-2,2.3,5.43,5.43,0,0,0-.91.51c-.27-.08-.55-.15-.83-.21.61-.47,1.23-.93,1.87-1.36"/></g></g></g><rect class="cls-1" width="493.51" height="493.51"/></g></g></svg>