<?xml version="1.0" encoding="UTF-8"?>
<svg id="Layer_2" data-name="Layer 2" xmlns="http://www.w3.org/2000/svg" viewBox="0 0 1200 500">
  <defs>
    <style>
      .cls-1, .cls-2 {
        fill: #fff;
      }

      .cls-2 {
        opacity: .5;
      }

      .cls-3 {
        fill: none;
      }
    </style>
  </defs>
  <g id="Layer_1-2" data-name="Layer 1">
    <g>
      <g>
        <path class="cls-1" d="M508.53,287.04h124.78v-80.09h35.54v195.99h-35.54v-80.09h-124.78v80.09h-35.53v-195.99h35.53v80.09Z"/>
        <path class="cls-1" d="M864.43,304.12c0,4.92-.87,10.23-2.6,15.92-1.73,5.7-4.53,10.98-8.4,15.85-3.88,4.88-8.93,8.95-15.17,12.23-6.24,3.28-13.83,4.92-22.76,4.92h-64.1v-33.76h64.1c4.83,0,8.56-1.48,11.21-4.44,2.64-2.96,3.96-6.63,3.96-11,0-4.65-1.48-8.29-4.44-10.93-2.96-2.64-6.54-3.96-10.73-3.96h-64.1c-4.83,0-8.57,1.48-11.21,4.44-2.64,2.96-3.96,6.63-3.96,11v49.61c0,4.74,1.48,8.43,4.44,11.07,2.96,2.64,6.63,3.96,11,3.96h63.83v33.89h-64.1c-4.92,0-10.23-.87-15.92-2.6-5.7-1.73-10.98-4.53-15.85-8.4-4.88-3.87-8.95-8.93-12.23-15.17-3.28-6.24-4.92-13.83-4.92-22.76v-49.88c0-4.92.87-10.23,2.6-15.92,1.73-5.69,4.53-10.98,8.41-15.85,3.87-4.87,8.93-8.95,15.17-12.23,6.24-3.28,13.83-4.92,22.76-4.92h64.1c4.92,0,10.23.87,15.92,2.6,5.69,1.73,10.98,4.53,15.85,8.4,4.87,3.87,8.95,8.93,12.23,15.17,3.28,6.24,4.92,13.83,4.92,22.76Z"/>
        <path class="cls-1" d="M953.26,402.94h-15.85c-5.1,0-10.55-.87-16.33-2.6-5.79-1.73-11.18-4.58-16.2-8.54-5.01-3.96-9.16-9.11-12.44-15.44-3.28-6.33-4.92-14.1-4.92-23.3v-160.32h35.53v160.32c0,4.37,1.37,7.86,4.1,10.46,2.73,2.6,6.15,3.9,10.25,3.9h15.85v35.53Z"/>
        <path class="cls-1" d="M1139,353.05c0,6.11-.77,11.6-2.32,16.47-1.55,4.88-3.6,9.16-6.15,12.85-2.55,3.69-5.51,6.83-8.88,9.43-3.37,2.6-6.9,4.71-10.59,6.36-3.69,1.64-7.4,2.85-11.14,3.62-3.74.77-7.29,1.16-10.66,1.16h-64.1v-35.53h64.1c4.74,0,8.29-1.23,10.66-3.69,2.37-2.46,3.55-6.01,3.55-10.66v-47.84c0-4.92-1.21-8.56-3.62-10.93-2.42-2.37-5.94-3.55-10.59-3.55h-63.83c-4.83,0-8.47,1.21-10.93,3.62-2.46,2.42-3.69,5.95-3.69,10.59v144.19h-35.53v-144.19c0-6.1.77-11.57,2.32-16.4,1.55-4.83,3.62-9.09,6.22-12.78s5.58-6.83,8.95-9.43c3.37-2.6,6.9-4.71,10.59-6.36,3.69-1.64,7.43-2.85,11.21-3.62,3.78-.77,7.31-1.16,10.59-1.16h64.1c6.1,0,11.57.78,16.4,2.32,4.83,1.55,9.09,3.6,12.78,6.15,3.69,2.55,6.83,5.51,9.43,8.88,2.6,3.37,4.72,6.9,6.36,10.59,1.64,3.69,2.85,7.4,3.62,11.14.77,3.74,1.16,7.29,1.16,10.66v48.11Z"/>
      </g>
      <g>
        <path class="cls-1" d="M246.72,283.78c0,1.07-.2,2.07-.6,2.99s-.94,1.72-1.61,2.39-1.47,1.2-2.39,1.58c-.92.38-1.9.58-2.93.58-.92,0-1.85-.17-2.79-.52-.94-.35-1.77-.9-2.5-1.67l-54.66-57.07v58.11h-14.96v-76.12c0-1.53.43-2.92,1.29-4.17.86-1.25,1.97-2.18,3.31-2.79,1.42-.58,2.88-.72,4.37-.43,1.5.29,2.78.99,3.85,2.1l54.66,57.02v-58.11h14.96v76.12Z"/>
        <path class="cls-1" d="M338.66,290.17h-53.97c-2.07,0-4.33-.36-6.79-1.09-2.46-.73-4.73-1.93-6.82-3.6-2.09-1.67-3.84-3.83-5.24-6.5-1.4-2.67-2.1-5.94-2.1-9.81v-53.97c0-1.04.19-2.01.58-2.93.38-.92.91-1.73,1.58-2.42.67-.69,1.47-1.23,2.39-1.61.92-.38,1.92-.58,2.99-.58h67.37v14.96h-59.95v46.54c0,1.96.52,3.45,1.55,4.49s2.55,1.55,4.55,1.55h53.85v14.96ZM331.93,256.46h-47.24v-15.07h47.24v15.07Z"/>
      </g>
      <path class="cls-2" d="M426,260.74c-3.42,0-6.84-1.34-9.39-4.01L250,82.67l-166.61,174.06c-4.96,5.19-13.19,5.37-18.38.4-5.19-4.96-5.37-13.19-.4-18.38L240.61,54.88c2.45-2.56,5.84-4.01,9.39-4.01s6.94,1.45,9.39,4.01l176,183.87c4.96,5.19,4.78,13.42-.4,18.38-2.52,2.41-5.76,3.61-8.99,3.61Z"/>
      <path class="cls-2" d="M376.52,426.74h-97.28c-6.63,0-12-5.37-12-12v-62.22h-34.48v62.22c0,6.63-5.37,12-12,12h-97.28c-6.63,0-12-5.37-12-12v-162.5c0-6.63,5.37-12,12-12s12,5.37,12,12v150.5h73.28v-62.22c0-6.63,5.37-12,12-12h58.48c6.63,0,12,5.37,12,12v62.22h73.28v-150.5c0-6.63,5.37-12,12-12s12,5.37,12,12v162.5c0,6.63-5.37,12-12,12Z"/>
    </g>
    <rect class="cls-3" width="1200" height="500"/>
  </g>
</svg>