<svg xmlns="http://www.w3.org/2000/svg" xmlns:xlink="http://www.w3.org/1999/xlink" width="126.973" height="130.636" viewBox="0 0 126.973 130.636">
  <defs>
    <clipPath id="clip-path">
      <rect id="crop" width="126.973" height="130.636" fill="none"/>
    </clipPath>
    <clipPath id="clip-path-2">
      <rect id="Rectangle_28" data-name="Rectangle 28" width="126.972" height="130.635" transform="translate(0 0.001)" fill="none"/>
    </clipPath>
  </defs>
  <g id="sm_star_icon" clip-path="url(#clip-path)">
    <g id="Group_52" data-name="Group 52">
      <g id="Group_51" data-name="Group 51" clip-path="url(#clip-path-2)">
        <path id="Path_34" data-name="Path 34" d="M123.276,107.131c-.22-.057-.443-.1-.662-.138a3.664,3.664,0,0,1-1.021-.767c-.582-.754-.575-1.876-1.412-2.687a4.9,4.9,0,0,0-2.245-1.213,2.557,2.557,0,0,0,.31-.588c1.063-2.822-3.121-6.795-7.372-10.751a83.224,83.224,0,0,0-6.439-5.4,8.709,8.709,0,0,0-1.961-4.252,8.937,8.937,0,0,0-2.791-2.178c.123-.358.3-.889.5-1.537,1.237-4.029.94-4.843.766-5.2a3.853,3.853,0,0,0-1.528-1.487,6.386,6.386,0,0,0-3.282-1.012q4.618-5.822,9.237-11.641a126.745,126.745,0,0,0,11.017-13.5,12.913,12.913,0,0,0,5.938-5.054,12.269,12.269,0,0,0,1.8-6.053,4.617,4.617,0,0,0,.543-4.365,4.509,4.509,0,0,0-6.335-2.081,19.071,19.071,0,0,0-2.174,1.6,2.867,2.867,0,0,0-1.58.006,16.69,16.69,0,0,0-5.276,2.668c-.562.1-1.128.211-1.7.324a97.639,97.639,0,0,0-10.484,2.7A2.825,2.825,0,0,0,95.6,33.043c-.989-.339-1.935.148-3.053.742A12.274,12.274,0,0,0,89,36.648c-.485.113-.969.217-1.454.33a2.5,2.5,0,0,0-1.228.151c-.258.1-.51.211-.766.314q-4.119.957-8.232,1.964a3.449,3.449,0,0,0-4.029-3.2c-.355-.547-.708-1.091-1.066-1.637a3.556,3.556,0,0,0-2-3.055c-2.368-3.6-4.739-7.206-7.046-10.846a3.508,3.508,0,0,0-2.517-4.045,3.489,3.489,0,0,1-1.05-1.738,3.393,3.393,0,0,1,.09-1.908,4.121,4.121,0,0,0,.614-1.238,5.268,5.268,0,0,0-1.014-4.4A3.344,3.344,0,0,0,57.493,5.17a4.092,4.092,0,0,0-.11-2.115A4.459,4.459,0,0,0,52.9.009C50.483.2,48.58,1.986,48.925,4.475a3.64,3.64,0,0,0,.145.616c-2.879,3.881-3.266,7.785-1.583,9.378a3.657,3.657,0,0,0,2.575.88q-.3,2.437-.588,4.871a2.9,2.9,0,0,0-1.715.484c-.107.072-.213.141-.32.211a4.738,4.738,0,0,0-.856.625c-.039.035-.078.066-.113.1a5.8,5.8,0,0,0-.669.748l.055.031a3.27,3.27,0,0,0-.055,3.448,3.373,3.373,0,0,0,.488.613,3.139,3.139,0,0,0,.843,1.04,12.5,12.5,0,0,0-.549,1.138A14.973,14.973,0,0,0,46.625,39.3c-.481,2.458-1.021,4.909-1.644,7.345a2.051,2.051,0,0,0-.846.974,1.7,1.7,0,0,0-.084.311,18.179,18.179,0,0,0-12.2,3.127q-2.956.679-5.925,1.329Q17.265,54.312,8.6,56.243q-3.639.863-7.256,1.823A1.811,1.811,0,0,0,.9,61.381q1.526.853,3.053,1.71A4.277,4.277,0,0,0,3.8,64.738a6.469,6.469,0,0,0,.733,2.14,6.072,6.072,0,0,0,2.2,2.14,5.091,5.091,0,0,0,1.04,2.656,6.208,6.208,0,0,0,7.347,1.458,5.23,5.23,0,0,0,1.56-1.254.948.948,0,0,0-.178.613c.174,1.826,6.936,2.59,9.411,2.825.527.289,1.053.581,1.58.871A14.77,14.77,0,0,0,31.451,79.1a15.077,15.077,0,0,0,3.932,1.355c.41.22.821.446,1.234.666-.378.616-.853,1.439-1.347,2.439a30.758,30.758,0,0,0-1.528,3.715,8.429,8.429,0,0,0-.762,2.97,4.837,4.837,0,0,0,1.228,2.788,2.656,2.656,0,0,1-.271.541.639.639,0,0,0,1.108.632,9.134,9.134,0,0,1,.527-.864,5.37,5.37,0,0,0,1.208-.022q-.746,5.3-1.418,10.613c-.391.547-.927,1.282-2.1,2.709-1.547,1.886-3.492,3.743-3.693,6.264a3.089,3.089,0,0,0,.924,2.6A16.438,16.438,0,0,0,28,122.521c-.2,1.864-.352,3.532.669,5.157,1.173,1.867,3.647,3.294,5.2,2.69a2.516,2.516,0,0,0,.633-.5,1.8,1.8,0,0,0,1.984-.387c6.1-6.462,11.492-13.57,17.184-20.359,3.063-3.658,6.184-7.276,9.463-10.751a3.888,3.888,0,0,0,3.67-.893c2.013-1.757,4.048-3.492,6.119-5.182a21.547,21.547,0,0,1,3.538.817,1.536,1.536,0,0,0-.058.874c.019.072.029.088.048.167.229,1.05-.9,1.628-.9,2.269.01.971,2.649,2.335,5.285,2a7.848,7.848,0,0,0,4.332-2.26c.142.057.284.107.426.163a4.714,4.714,0,0,0,2.371,2.838,5.068,5.068,0,0,0,4.323-.047c.443.195.885.387,1.328.581a1.241,1.241,0,0,0-.065.522c.116,1.229,2.177,2.3,3.967,2.169a4.17,4.17,0,0,0,1.334-.33,34.38,34.38,0,0,0,10.5,6.763c2.313.905,5.741,1.867,7.76,4.846a7.465,7.465,0,0,0,1.318,1.571,5.147,5.147,0,0,0,7.831-.981,4.866,4.866,0,0,0-2.979-7.125M104,98.24c.414-.371.478-.49.885-.864a10.329,10.329,0,0,1,2.455-1.656l.061.085a11.058,11.058,0,0,0-2.462,2.872c-.31-.148-.627-.289-.94-.437M71.582,73.057q-3.145,2.55-6.174,5.223l-.016-.053q2.68-2.758,5.353-5.516,2.806-2.423,5.722-4.73c4.558-3.586,9.324-6.949,14.176-10.148,1.535-1.012,3.092-2,4.659-2.964.036.028.074.053.113.079q-2.5,2.291-5.033,4.541C83.629,63.3,77.446,68.3,71.582,73.057m8.555,2.018c-.572.487-1.144.971-1.712,1.458.265-.383.507-.779.74-1.191.333-.079.656-.17.972-.267M43.388,95.458A13.211,13.211,0,0,1,45.6,91.844a13.909,13.909,0,0,0,1.467-1.427c.918-1.078,1.292-1.945,2.2-2.14a1.885,1.885,0,0,1,.733,0,3.975,3.975,0,0,1,.733-1.427,4.718,4.718,0,0,1,2.2-1.427A39.844,39.844,0,0,0,58.8,82.57q-4.037,3.215-8.067,6.421c-2.84,2.326-5.285,4.516-7.347,6.468m3.79,7.561c-.533.418-1.063.827-1.6,1.235-1.063.817-2.158,1.656-3.263,2.508a33.3,33.3,0,0,0,1.854-2.888,2.746,2.746,0,0,0,1.819-1.16,2.682,2.682,0,0,1,.7.151ZM18.341,63.886c-.888.443-1.644.751-2.132.94a28.071,28.071,0,0,1,4.4-4.28c1.115-.871,2.1-1.505,2.9-2.021q1.047-.226,2.087-.456a22.122,22.122,0,0,1-7.253,5.817M54.182,37.352c1.082-.487,2.313-1.455,5.5-3.262.048-.028.155-.082.294-.151-2.675,2.712-4.768,4.774-6.381,6.3.2-.962.4-1.927.585-2.891M92.533,50.47l2.84-3.272a6.881,6.881,0,0,0,.827-.3,8.994,8.994,0,0,0,4.452-4.7l.032-.013a1.468,1.468,0,0,0,.149.094c1.8,1.062,4.833-.748,6.368-1.8L92.533,50.47M50.8,70.565a6.407,6.407,0,0,0-2.966,2.348c-.824,1.326-1.289,1.175-1.509,1.1h-.006a14.747,14.747,0,0,0,2.675-2.561c.533-.519,1.063-1.116,1.586-1.713.052-.057.1-.116.158-.179v.355a3.018,3.018,0,0,0,.061.651m-.31-12.251a4.925,4.925,0,0,1-3.563,1.147,8.281,8.281,0,0,0,1.922-1.518A67.688,67.688,0,0,1,63.664,47.475q2.98-1.461,5.935-3.1c-.162.113-.4.286-.691.493-3.2,2.3-4.138,3.121-5.705,4.177a34,34,0,0,1-3.667,2.14,3.893,3.893,0,0,1-1.2,1.653c-1.186.94-2.546.77-3.2,1.914a2.563,2.563,0,0,0-.226.585c-.291.883-1.292,1.993-4.423,2.979m7.582-33.436c.145.1-.342.776,0,1.427.242.465.678.465.733.713.174.8-3.88,2.8-4.4,2.14-.575-.726,3.3-4.532,3.667-4.28M56.6,22.738c.136.057.042.541,0,.713-.249.977-1.312,1.562-1.467,1.427-.229-.2,1.157-2.266,1.467-2.14m5.04,18.184a8.513,8.513,0,0,1,6-1.471,8.812,8.812,0,0,1-1.745.66L63.04,41.934c-2.232,1.688-4.665,3.407-7.308,5.12-1.948,1.26-3.854,2.417-5.7,3.476a22.427,22.427,0,0,0,4.4-4.28,21.4,21.4,0,0,0,1.467-2.14,4.415,4.415,0,0,0,1.467,0c1.99-.346,2.562-1.949,4.277-3.187M68.158,53.71c-.3.277-.6.55-.9.827Q64.628,57,62,59.455a3.482,3.482,0,0,0-.937-.346c2.329-1.848,4.688-3.658,7.1-5.4M52.03,68.163a20.387,20.387,0,0,1,3.689-2.718,12.624,12.624,0,0,1,2.688-.7,10.2,10.2,0,0,1-1.838,1.345c-.83.49-1.661.893-2.484,1.292-.866.421-1.735.839-2.594,1.342.178-.195.359-.38.54-.556m11.311-.5a10.776,10.776,0,0,0,4.991-3.642A9.864,9.864,0,0,0,69.8,61.171c.992-.453,2.009-.959,3.043-1.531a44.5,44.5,0,0,0,9.925-7.492l-11.492,11.3A8.758,8.758,0,0,1,69.4,65.288c-.976.7-1.467.739-2.533,1.59A7.071,7.071,0,0,0,65.4,68.3c-.795,1.078-.769,1.8-1.467,2.14a2,2,0,0,1-1.467,0A23.906,23.906,0,0,1,61,72.585c-1.825,2.36-4.177,4.463-4.4,4.28-.2-.163,1.16-2.219,6.739-9.2M45.759,51.416c.33.361.669.695.985.987q-2.753,2.692-5.505,5.38A26.143,26.143,0,0,1,36.8,61.171a26.542,26.542,0,0,1-4.4,2.14c8.216-6.119,11.954-9.736,13.359-11.9m1.89,50.611a13.962,13.962,0,0,1,1.525-2.982,5.434,5.434,0,0,1,3.3-2.165l1.1-.211v-2.36a10.628,10.628,0,0,0,5.873-4.236,37.2,37.2,0,0,1,4.009-3.866,10.742,10.742,0,0,0-.2,2.118c-4.94,4.783-10.286,9.475-15.614,13.724Zm26.8-21.487c-.562.484-1.128.962-1.7,1.443a16.889,16.889,0,0,1,3.538-3.743,6.938,6.938,0,0,0-1.838,2.3m24.718,4.114A58.991,58.991,0,0,1,93.3,89.647c-1.36,1.012-2.552,1.81-3.567,2.489-.191-.088-.381-.176-.575-.261,2.4-1.945,5.615-4.3,10.009-7.222m6.355,8.624-.963.434c.213-.289.423-.585.636-.877.11.148.216.3.326.443M32.462,70.385c1.909-1.38,3.4-2.69,4.4-3.567A70.547,70.547,0,0,0,42,61.825c2.749-.556,3.509-.33,3.667,0,.653,1.38-8.519,5.9-13.9,10.22l-.911-.5c.52-.371,1.053-.757,1.609-1.16M84.211,83.478c1.945-1.317,3.916-2.605,5.912-3.847-2.081,4.5-4.484,6.33-6.329,7.162a17.343,17.343,0,0,0-2.827,1.584q-1.3-.391-2.6-.673c1.909-1.461,3.851-2.876,5.844-4.227" fill="#44c7d2"/>
      </g>
    </g>
  </g>
</svg>
