<svg xmlns="http://www.w3.org/2000/svg" xmlns:xlink="http://www.w3.org/1999/xlink" width="82.457" height="84.717" viewBox="0 0 82.457 84.717">
  <defs>
    <clipPath id="clip-path">
      <rect id="Rectangle_23" data-name="Rectangle 23" width="82.457" height="84.717" fill="#ffc671"/>
    </clipPath>
  </defs>
  <g id="Group_409" data-name="Group 409" transform="translate(41 -0.002)">
    <g id="Group_45" data-name="Group 45" transform="translate(-41 0.002)" clip-path="url(#clip-path)">
      <path id="Path_33" data-name="Path 33" d="M80.06,69.467c-.143-.037-.287-.065-.43-.09a2.379,2.379,0,0,1-.663-.5c-.378-.489-.373-1.217-.917-1.743a3.181,3.181,0,0,0-1.458-.787,1.658,1.658,0,0,0,.2-.381c.69-1.83-2.027-4.406-4.788-6.972a54.032,54.032,0,0,0-4.181-3.5,5.644,5.644,0,0,0-1.274-2.758,5.8,5.8,0,0,0-1.813-1.412c.08-.232.2-.577.323-1,.8-2.613.611-3.141.5-3.373a2.5,2.5,0,0,0-.992-.964,4.152,4.152,0,0,0-2.132-.656l6-7.549a82.217,82.217,0,0,0,7.154-8.752,8.384,8.384,0,0,0,3.856-3.277,7.948,7.948,0,0,0,1.171-3.925A2.991,2.991,0,0,0,80.966,19a2.93,2.93,0,0,0-4.114-1.349,12.382,12.382,0,0,0-1.412,1.037,1.865,1.865,0,0,0-1.026,0,10.845,10.845,0,0,0-3.426,1.73c-.365.065-.732.137-1.1.21a63.482,63.482,0,0,0-6.808,1.753,1.833,1.833,0,0,0-.992-.964A2.532,2.532,0,0,0,60.1,21.9a7.969,7.969,0,0,0-2.3,1.857c-.315.073-.629.141-.944.214a1.623,1.623,0,0,0-.8.1c-.168.065-.331.137-.5.2q-2.675.621-5.346,1.274A2.239,2.239,0,0,0,47.6,23.476c-.231-.355-.459-.707-.692-1.062a2.306,2.306,0,0,0-1.3-1.981c-1.538-2.336-3.078-4.673-4.576-7.033A2.275,2.275,0,0,0,39.4,10.776a2.262,2.262,0,0,1-.682-1.127,2.2,2.2,0,0,1,.059-1.237,2.671,2.671,0,0,0,.4-.8,3.413,3.413,0,0,0-.659-2.853,2.169,2.169,0,0,0-1.177-1.41,2.65,2.65,0,0,0-.071-1.372A2.9,2.9,0,0,0,34.358,0a2.589,2.589,0,0,0-2.583,2.9,2.357,2.357,0,0,0,.094.4C30,5.812,29.749,8.343,30.842,9.376a2.377,2.377,0,0,0,1.672.571q-.192,1.581-.382,3.159a1.887,1.887,0,0,0-1.114.314c-.069.047-.138.092-.208.137a3.076,3.076,0,0,0-.556.406c-.025.022-.05.043-.073.067a3.766,3.766,0,0,0-.434.485l.036.02a2.118,2.118,0,0,0-.036,2.236,2.188,2.188,0,0,0,.317.4,2.036,2.036,0,0,0,.548.675,8.1,8.1,0,0,0-.357.738,9.7,9.7,0,0,0,.027,6.9c-.313,1.594-.663,3.183-1.068,4.763a1.331,1.331,0,0,0-.55.632,1.1,1.1,0,0,0-.055.2A11.819,11.819,0,0,0,20.69,33.1q-1.92.44-3.848.862-5.627,1.25-11.252,2.5-2.363.559-4.712,1.182A1.174,1.174,0,0,0,.59,39.8l1.983,1.109a2.77,2.77,0,0,0-.1,1.068,4.192,4.192,0,0,0,.476,1.388,3.941,3.941,0,0,0,1.429,1.388,3.3,3.3,0,0,0,.676,1.722,4.036,4.036,0,0,0,4.771.946,3.4,3.4,0,0,0,1.013-.813.614.614,0,0,0-.115.4c.113,1.184,4.5,1.679,6.112,1.832l1.026.565a9.591,9.591,0,0,0,2.568,1.889,9.8,9.8,0,0,0,2.553.878c.266.143.533.289.8.432-.245.4-.554.933-.875,1.582a19.931,19.931,0,0,0-.992,2.409,5.46,5.46,0,0,0-.5,1.926,3.135,3.135,0,0,0,.8,1.808,1.722,1.722,0,0,1-.176.351.415.415,0,0,0,.72.41,5.925,5.925,0,0,1,.342-.56,3.492,3.492,0,0,0,.785-.014q-.485,3.439-.921,6.883c-.254.355-.6.832-1.364,1.757-1,1.223-2.268,2.427-2.4,4.062a2,2,0,0,0,.6,1.683,10.65,10.65,0,0,0-1.618,4.553,4.864,4.864,0,0,0,.434,3.344C19.383,84,20.99,84.928,22,84.536a1.634,1.634,0,0,0,.411-.326A1.173,1.173,0,0,0,23.7,83.96c3.961-4.19,7.463-8.8,11.16-13.2,1.989-2.372,4.016-4.718,6.145-6.972a2.527,2.527,0,0,0,2.383-.579c1.307-1.139,2.629-2.264,3.974-3.361a14.011,14.011,0,0,1,2.3.53,1,1,0,0,0-.038.567c.013.047.019.057.031.108.149.681-.587,1.056-.585,1.472.006.63,1.72,1.514,3.432,1.3a5.1,5.1,0,0,0,2.813-1.465c.092.037.185.069.277.106a3.057,3.057,0,0,0,1.54,1.84,3.3,3.3,0,0,0,2.807-.031l.862.377a.8.8,0,0,0-.042.338c.076.8,1.414,1.492,2.576,1.406a2.711,2.711,0,0,0,.866-.214,22.332,22.332,0,0,0,6.817,4.386c1.5.587,3.728,1.211,5.04,3.143a4.843,4.843,0,0,0,.856,1.019,3.345,3.345,0,0,0,5.086-.636,3.154,3.154,0,0,0-1.934-4.62M67.541,63.7c.269-.241.311-.318.575-.56a6.709,6.709,0,0,1,1.595-1.074l.04.055a7.173,7.173,0,0,0-1.6,1.863c-.2-.1-.407-.188-.611-.283M46.489,47.37q-2.042,1.654-4.009,3.387l-.01-.035q1.74-1.788,3.476-3.577,1.822-1.571,3.716-3.067c2.96-2.325,6.055-4.506,9.206-6.581,1-.656,2.008-1.294,3.025-1.922.023.018.048.035.073.051q-1.621,1.486-3.269,2.945a90.913,90.913,0,0,0-12.209,8.8m5.556,1.308c-.371.316-.743.63-1.112.946.172-.249.329-.505.48-.772.216-.051.426-.11.632-.173M28.18,61.9a8.566,8.566,0,0,1,1.437-2.344,9.027,9.027,0,0,0,.953-.925c.6-.7.839-1.262,1.429-1.388a1.226,1.226,0,0,1,.476,0,2.576,2.576,0,0,1,.476-.925,3.064,3.064,0,0,1,1.429-.925,25.891,25.891,0,0,0,3.81-1.851L32.951,57.7c-1.844,1.508-3.432,2.929-4.771,4.194m2.461,4.9c-.346.271-.69.536-1.036.8-.69.53-1.4,1.074-2.119,1.626a21.6,21.6,0,0,0,1.2-1.873,1.784,1.784,0,0,0,1.181-.752,1.744,1.744,0,0,1,.457.1ZM11.913,41.423c-.577.287-1.068.487-1.385.609a18.218,18.218,0,0,1,2.858-2.776c.724-.565,1.362-.976,1.882-1.31q.68-.147,1.355-.3a14.362,14.362,0,0,1-4.71,3.772M35.189,24.215c.7-.316,1.5-.944,3.573-2.116.031-.018.1-.053.191-.1-1.737,1.759-3.1,3.1-4.144,4.088.132-.624.262-1.249.38-1.875M60.1,32.722,61.939,30.6a4.472,4.472,0,0,0,.537-.192,5.836,5.836,0,0,0,2.891-3.051l.021-.008a.952.952,0,0,0,.1.061c1.169.689,3.139-.485,4.135-1.166L60.1,32.722M32.99,45.754a4.16,4.16,0,0,0-1.926,1.522c-.535.86-.837.762-.98.713h0a9.571,9.571,0,0,0,1.737-1.661c.346-.336.69-.724,1.03-1.111.034-.037.067-.075.1-.116v.23a1.955,1.955,0,0,0,.04.422m-.2-7.944a3.2,3.2,0,0,1-2.314.744,5.377,5.377,0,0,0,1.248-.984,43.957,43.957,0,0,1,9.624-6.789q1.935-.948,3.854-2.012c-.1.073-.26.185-.449.32-2.081,1.49-2.688,2.024-3.705,2.709a22.087,22.087,0,0,1-2.381,1.388,2.525,2.525,0,0,1-.78,1.072c-.77.609-1.653.5-2.077,1.241a1.661,1.661,0,0,0-.147.379c-.189.573-.839,1.292-2.872,1.932m4.924-21.683c.094.063-.222.5,0,.925.157.3.441.3.476.463.113.518-2.52,1.814-2.858,1.388-.373-.471,2.14-2.939,2.381-2.776m-.953-1.388c.088.037.027.351,0,.463-.162.634-.852,1.013-.953.925-.149-.128.751-1.469.953-1.388m3.273,11.792a5.535,5.535,0,0,1,3.9-.954A5.728,5.728,0,0,1,42.8,26l-1.855,1.182c-1.45,1.094-3.03,2.209-4.746,3.32-1.265.817-2.5,1.567-3.7,2.254a14.556,14.556,0,0,0,2.858-2.776A13.875,13.875,0,0,0,36.3,28.6a2.871,2.871,0,0,0,.953,0c1.292-.224,1.664-1.264,2.778-2.067m4.232,8.293c-.2.179-.39.357-.583.536l-3.418,3.19a2.263,2.263,0,0,0-.608-.224c1.513-1.2,3.044-2.372,4.609-3.5M33.792,44.2a13.238,13.238,0,0,1,2.4-1.763,8.207,8.207,0,0,1,1.746-.457,6.62,6.62,0,0,1-1.194.872c-.539.318-1.078.579-1.613.838-.562.273-1.127.544-1.685.87.115-.126.233-.247.35-.361m7.345-.322a7,7,0,0,0,3.241-2.362,6.394,6.394,0,0,0,.953-1.851c.644-.293,1.3-.622,1.976-.993a28.894,28.894,0,0,0,6.445-4.859L46.29,41.138a5.684,5.684,0,0,1-1.217,1.194c-.634.457-.953.479-1.645,1.031a4.589,4.589,0,0,0-.953.925c-.516.7-.5,1.17-.953,1.388a1.3,1.3,0,0,1-.953,0,15.5,15.5,0,0,1-.953,1.388c-1.185,1.531-2.713,2.894-2.858,2.776-.128-.106.753-1.439,4.377-5.965M29.72,33.336c.214.234.434.45.64.64l-3.575,3.489a16.975,16.975,0,0,1-2.883,2.2,17.247,17.247,0,0,1-2.858,1.388c5.335-3.968,7.763-6.314,8.675-7.714m1.227,32.821a9.05,9.05,0,0,1,.99-1.934,3.529,3.529,0,0,1,2.144-1.4l.713-.137V61.152A6.9,6.9,0,0,0,38.609,58.4a24.14,24.14,0,0,1,2.6-2.507,6.956,6.956,0,0,0-.132,1.374c-3.208,3.1-6.68,6.145-10.14,8.9Zm17.4-13.934c-.365.314-.732.624-1.1.935a10.959,10.959,0,0,1,2.3-2.427,4.5,4.5,0,0,0-1.194,1.492M64.4,54.891a38.3,38.3,0,0,1-3.81,3.239c-.883.656-1.657,1.174-2.316,1.614-.124-.057-.248-.114-.373-.169,1.561-1.262,3.646-2.79,6.5-4.684m4.127,5.592-.625.281c.138-.188.275-.379.413-.569l.212.287M21.084,45.638c1.24-.895,2.209-1.745,2.858-2.313a45.785,45.785,0,0,0,3.334-3.239c1.785-.361,2.278-.214,2.381,0,.424.895-5.533,3.823-9.026,6.628l-.592-.324c.338-.24.684-.491,1.045-.752m33.606,8.491c1.263-.854,2.543-1.69,3.839-2.495-1.351,2.916-2.912,4.1-4.11,4.645a11.268,11.268,0,0,0-1.836,1.027q-.847-.254-1.689-.436c1.24-.948,2.5-1.865,3.8-2.741" transform="translate(-0.003 0.007)" fill="#ffc671"/>
    </g>
  </g>
</svg>
